<?xml version="1.0" standalone="no"?>
<!DOCTYPE svg PUBLIC "-//W3C//DTD SVG 20010904//EN"
 "http://www.w3.org/TR/2001/REC-SVG-20010904/DTD/svg10.dtd">
<svg version="1.0" xmlns="http://www.w3.org/2000/svg"
 width="2560.000000pt" height="1783.000000pt" viewBox="0 0 2560.000000 1783.000000"
 preserveAspectRatio="xMidYMid meet">
<metadata>
Created by potrace 1.16, written by Peter Selinger 2001-2019
</metadata>
<g transform="translate(0.000000,1783.000000) scale(0.100000,-0.100000)"
fill="#000000" stroke="none">
<path d="M7130 11345 c-36 -7 -91 -16 -123 -19 -31 -4 -55 -11 -52 -15 2 -5
-6 -6 -19 -4 -13 3 -30 -2 -37 -10 -7 -7 -22 -12 -32 -9 -10 2 -32 -2 -50 -11
-18 -9 -57 -23 -87 -32 -48 -13 -300 -132 -260 -122 8 2 24 0 35 -5 18 -8 18
-8 -2 -4 -19 3 -23 0 -23 -19 0 -28 -19 -43 -30 -25 -5 8 -16 9 -30 5 -15 -5
-20 -4 -16 4 4 6 13 11 21 11 7 0 15 7 19 15 6 17 -135 -68 -202 -123 -85 -68
-106 -86 -197 -174 -73 -70 -91 -93 -90 -115 0 -22 -4 -27 -19 -25 -10 2 -26
-5 -35 -15 -40 -45 -72 -94 -66 -103 4 -6 1 -9 -6 -8 -6 2 -21 -13 -32 -32
-17 -28 -18 -32 -4 -21 14 11 17 11 17 0 0 -11 2 -11 10 1 6 9 5 17 -2 21 -7
4 -7 9 0 13 14 8 22 -18 11 -35 -4 -8 -14 -14 -21 -15 -7 0 -20 -2 -28 -2 -15
-2 -44 -55 -43 -79 0 -7 -3 -11 -7 -8 -12 8 -119 -218 -112 -239 2 -5 -5 -17
-13 -27 -11 -11 -15 -26 -10 -41 5 -19 4 -20 -5 -8 -9 12 -10 8 -6 -20 4 -25
3 -31 -4 -20 -8 13 -10 12 -11 -5 -3 -35 -4 -40 -11 -51 -13 -21 -50 -217 -46
-246 3 -15 1 -28 -3 -28 -4 0 -9 -25 -11 -55 -1 -30 0 -55 5 -55 4 0 7 -7 7
-16 0 -8 -4 -12 -10 -9 -6 4 -10 -18 -10 -60 0 -43 4 -64 10 -60 7 5 8 -15 4
-61 -5 -46 -4 -65 3 -61 7 5 10 -5 8 -27 -4 -44 6 -117 15 -111 4 2 5 -7 2
-20 -2 -15 0 -25 7 -25 6 0 11 -14 11 -31 0 -49 32 -169 43 -162 6 3 7 1 3 -6
-9 -14 2 -51 14 -51 5 0 7 7 4 15 -4 8 -1 15 6 15 8 0 9 -10 5 -30 -7 -30 9
-96 27 -115 6 -6 7 -3 2 10 -4 11 -4 17 1 13 4 -4 9 -18 10 -32 5 -42 16 -67
27 -60 7 4 8 2 4 -4 -7 -12 62 -142 76 -142 4 0 8 -5 8 -12 0 -17 51 -88 60
-83 4 2 20 -9 35 -25 16 -17 25 -30 21 -30 -5 0 -17 11 -28 26 -11 14 -23 23
-26 20 -2 -3 7 -21 22 -40 20 -27 31 -34 51 -30 20 4 27 -1 35 -21 14 -36 13
-37 -10 -23 -11 7 -18 18 -16 24 2 6 -2 11 -10 11 -8 0 -14 -4 -14 -8 0 -4 52
-60 115 -126 102 -105 116 -116 127 -101 11 14 16 15 29 5 15 -11 15 -14 1
-27 -14 -13 -15 -12 -9 3 3 9 2 19 -2 22 -5 3 -11 -2 -15 -10 -3 -10 15 -32
55 -65 33 -27 64 -50 69 -50 5 0 15 -6 22 -12 38 -36 46 -40 69 -28 14 8 19 8
15 1 -5 -7 4 -9 26 -6 26 4 28 3 8 -3 -34 -11 -9 -26 28 -18 18 5 22 4 13 -3
-7 -5 -10 -14 -7 -20 4 -6 2 -11 -3 -11 -6 0 -11 5 -11 10 0 6 -7 10 -16 10
-8 0 -22 7 -30 15 -9 8 -21 15 -27 15 -17 0 2 -15 56 -45 26 -14 53 -23 59
-19 7 4 8 3 4 -4 -10 -16 174 -106 188 -92 5 5 15 10 20 10 6 0 4 -4 -4 -10
-8 -5 -12 -12 -9 -15 10 -10 39 6 39 22 0 8 5 11 11 8 7 -5 5 -13 -6 -25 -15
-16 -11 -19 55 -40 46 -15 81 -20 102 -16 31 6 31 6 13 -10 -11 -8 -14 -13 -8
-9 7 3 22 1 34 -6 27 -14 79 8 57 24 -9 6 -7 7 5 3 10 -3 26 -6 35 -7 9 0 2
-5 -15 -10 -18 -5 -33 -14 -33 -19 0 -9 111 -27 144 -22 11 1 23 -3 27 -9 5
-9 64 -12 211 -12 251 0 251 0 312 13 28 5 66 11 83 12 22 1 29 6 23 12 -15
15 -12 26 8 26 13 0 14 -2 4 -9 -11 -7 -10 -10 3 -15 9 -3 24 -6 33 -6 13 0
14 2 3 9 -8 5 4 9 34 9 30 1 55 8 68 19 11 10 17 12 13 6 -9 -17 -13 -18 84
18 62 22 74 29 45 25 -28 -4 -35 -2 -25 4 8 6 31 9 50 8 34 -1 79 15 91 35 4
5 15 10 25 11 11 1 47 16 82 34 51 27 61 36 52 47 -9 11 -7 12 9 8 20 -5 95
39 97 57 1 6 2 17 3 25 0 8 6 15 12 15 6 0 9 -7 5 -15 -12 -33 53 16 163 122
68 65 110 112 106 120 -2 8 -1 12 4 9 14 -9 42 30 35 48 -4 10 1 26 13 39 11
12 23 29 26 37 4 12 6 12 6 -2 1 -10 -8 -26 -20 -37 -12 -11 -19 -25 -17 -32
2 -7 18 6 35 32 22 32 28 49 22 64 -12 32 -9 42 5 16 l14 -24 11 22 c7 12 9
27 5 34 -4 6 -3 8 1 4 5 -4 24 18 42 50 33 59 40 79 24 69 -5 -4 -4 10 2 29 6
19 16 35 24 35 7 0 13 9 13 20 0 11 4 20 8 20 13 0 52 141 52 185 0 21 4 34
10 30 6 -3 10 -4 10 -1 0 2 7 40 15 83 18 94 19 115 5 93 -8 -12 -10 -11 -10
7 0 12 6 23 12 25 9 3 12 33 12 102 -1 58 2 92 7 84 5 -8 9 14 9 55 0 43 -4
66 -10 62 -5 -3 -10 -1 -10 4 0 6 5 11 10 11 6 0 10 5 10 11 0 5 -4 7 -10 4
-5 -3 -10 0 -10 9 0 8 5 16 11 18 9 3 9 9 1 25 -7 12 -9 36 -6 55 5 25 4 30
-5 22 -13 -12 -16 -37 -7 -74 4 -14 3 -18 0 -10 -4 8 -11 17 -15 20 -11 7 1
80 12 80 5 0 9 13 9 29 0 26 -4 30 -37 35 -21 3 -402 5 -847 3 l-810 -2 0
-108 c-1 -60 2 -111 7 -114 4 -2 6 -23 5 -46 l-1 -42 -7 45 c-5 30 -7 1 -8
-87 0 -107 3 -133 14 -133 10 0 12 9 9 33 l-5 32 10 -32 c6 -18 15 -33 20 -33
5 0 7 8 3 18 -5 14 -3 13 10 -3 13 -17 19 -18 36 -7 24 14 43 16 21 2 -10 -6
42 -10 157 -10 128 0 173 3 176 13 4 10 6 10 6 0 1 -10 53 -13 229 -12 143 1
218 4 202 10 -20 7 -17 7 10 2 19 -3 89 -7 155 -9 66 -1 132 -5 147 -8 20 -4
28 -1 31 12 3 10 5 7 6 -10 0 -14 7 -29 14 -31 9 -4 9 -6 0 -6 -6 -1 -15 4
-18 9 -10 17 -28 11 -21 -7 4 -9 2 -20 -5 -23 -7 -5 -8 -18 -1 -44 12 -40 7
-48 -9 -13 -8 19 -9 18 -5 -9 3 -17 1 -35 -4 -40 -4 -5 -11 -22 -13 -39 -3
-16 -19 -63 -35 -102 -16 -40 -28 -73 -25 -73 2 0 -4 -12 -15 -27 -27 -39 -32
-58 -20 -74 7 -11 8 -9 3 6 -5 15 -3 17 5 9 9 -9 8 -19 -3 -39 -11 -23 -15
-25 -20 -11 -4 10 -3 15 3 11 6 -3 10 -2 10 4 0 22 -19 19 -35 -5 -11 -18 -13
-24 -4 -18 8 4 1 -6 -16 -22 -16 -17 -59 -62 -95 -100 -36 -38 -80 -80 -98
-93 -18 -13 -31 -26 -28 -29 4 -3 18 5 32 19 17 16 23 18 19 7 -7 -17 -29 -30
-56 -33 -26 -3 -80 -45 -73 -57 4 -6 2 -8 -4 -4 -11 6 -82 -23 -82 -34 0 -3
-22 -14 -49 -25 -40 -15 -47 -21 -35 -30 12 -8 7 -10 -23 -9 -33 1 -82 -11
-133 -33 -8 -3 -22 -5 -30 -4 -13 2 -13 1 0 -9 12 -9 10 -10 -12 -6 -28 6 -61
-2 -54 -13 2 -3 -20 -5 -50 -4 -30 1 -52 -1 -50 -5 2 -4 -30 -7 -72 -8 -43 0
-97 -2 -122 -3 -51 -3 -187 5 -210 12 -30 9 -128 28 -136 26 -5 -1 -25 5 -44
14 -25 11 -39 12 -48 5 -7 -6 -15 -8 -19 -4 -3 3 0 6 8 6 8 1 1 8 -14 16 -16
9 -35 13 -43 10 -9 -3 -12 -1 -9 4 3 6 -2 11 -12 12 -10 0 -22 2 -28 3 -5 2
-18 3 -28 4 -10 0 -16 5 -13 10 4 5 -15 20 -41 33 -83 41 -168 97 -226 148
-23 20 -48 35 -56 32 -8 -3 -11 0 -7 6 9 14 -82 98 -101 94 -11 -2 -14 2 -10
12 4 9 -8 34 -29 62 -42 55 -123 180 -132 203 -3 9 -17 34 -31 56 -14 22 -27
51 -28 65 -1 13 -12 33 -25 43 -13 10 -17 16 -10 12 10 -5 13 -2 10 11 -2 11
-8 18 -14 17 -5 0 -10 19 -10 43 -1 24 -7 50 -14 59 -6 8 -8 20 -4 26 4 7 3 9
-3 6 -5 -3 -10 8 -10 26 0 18 -6 73 -12 122 -14 102 -17 271 -6 298 4 9 5 28
3 42 -3 13 -1 22 3 19 5 -3 9 10 9 30 0 19 3 43 7 53 3 10 2 15 -2 11 -5 -5
-15 1 -22 12 -8 11 -19 18 -24 15 -5 -3 -6 1 -3 9 5 13 9 12 25 -7 11 -13 18
-17 19 -9 0 7 4 10 10 7 5 -3 7 0 4 8 -3 8 -1 18 5 22 6 3 11 11 11 16 0 6 -4
7 -10 4 -6 -3 -10 4 -10 17 0 18 2 20 10 8 7 -12 10 -11 15 5 4 11 19 53 35
92 15 40 22 70 16 66 -6 -4 -3 3 7 14 10 12 15 28 11 39 -4 13 -3 15 3 6 7 -9
14 -3 25 21 14 28 14 34 1 46 -13 12 -14 11 -9 -7 4 -11 3 -23 -2 -25 -4 -3
-7 6 -6 21 2 43 3 44 21 27 15 -16 18 -15 34 7 10 12 19 30 19 39 0 9 7 19 15
23 8 3 15 11 15 18 0 9 -3 9 -11 -2 -9 -13 -10 -13 -6 0 2 8 8 15 14 15 9 0
30 23 70 75 8 11 9 20 1 30 -8 12 -8 11 -3 -5 4 -14 3 -17 -5 -9 -7 7 -7 19
-2 34 l9 24 5 -22 c4 -12 12 -22 18 -22 7 0 10 7 6 16 -3 8 -2 13 3 10 5 -3
34 20 65 51 56 56 67 71 44 57 -10 -6 -10 -5 -1 8 7 8 10 18 6 22 -4 4 1 4 11
0 14 -5 15 -9 4 -15 -7 -5 -8 -9 -2 -9 15 0 46 35 37 43 -10 11 -25 8 -18 -3
10 -17 -12 -11 -26 7 -9 11 -10 14 -2 9 7 -4 22 -2 34 4 16 9 24 9 33 0 8 -8
6 -10 -9 -5 -16 5 -17 5 -5 -3 16 -12 41 2 37 20 -1 6 5 13 13 15 13 4 13 3 0
-6 -9 -7 -10 -11 -3 -11 6 0 15 5 18 11 4 5 18 14 32 20 13 5 21 13 18 19 -3
6 1 7 9 4 9 -3 16 -1 16 5 0 6 7 11 15 11 8 0 15 5 15 10 0 6 3 9 8 9 20 -3
25 2 12 12 -13 9 -12 10 3 5 19 -6 67 12 67 26 0 5 4 6 10 3 5 -3 18 -1 27 5
17 11 17 11 0 6 -12 -4 -16 -2 -11 6 5 8 1 9 -12 4 -14 -5 -16 -4 -8 4 8 8 19
8 38 0 23 -8 36 -6 74 13 26 13 53 22 60 19 7 -2 12 5 12 17 0 13 6 21 18 21
13 0 14 -2 3 -9 -8 -5 -9 -11 -3 -15 8 -5 28 -1 92 21 32 10 141 17 279 18 80
0 137 2 126 4 -14 2 -15 5 -5 11 9 5 18 3 25 -7 9 -12 30 -16 73 -17 34 0 54
-4 44 -8 -13 -5 -10 -7 10 -7 22 -1 26 2 21 16 -5 12 1 10 18 -8 16 -15 48
-30 85 -39 32 -7 67 -19 78 -26 10 -7 25 -10 32 -7 8 3 14 0 14 -7 0 -6 5 -8
10 -5 6 4 8 10 6 14 -3 4 5 8 17 8 20 2 21 1 5 -11 -27 -20 -22 -28 12 -21 18
4 30 3 30 -4 0 -6 -7 -8 -15 -5 -28 11 -15 -4 18 -21 38 -20 100 -29 91 -13
-4 7 -2 8 5 4 6 -4 9 -12 6 -17 -8 -12 2 -11 28 2 21 11 21 10 5 -7 -15 -15
-21 -16 -44 -5 -46 20 -37 6 17 -28 28 -17 54 -29 59 -26 5 3 12 0 16 -6 5 -8
3 -10 -7 -4 -9 5 -8 1 3 -10 9 -10 21 -14 28 -10 9 6 9 9 -1 16 -9 5 -6 7 11
5 24 -2 36 -19 15 -22 -5 0 -14 -2 -20 -3 -5 -1 12 -22 40 -46 l50 -44 162
161 c137 137 160 164 152 180 -7 12 -6 18 1 18 6 0 8 5 5 10 -4 6 -11 7 -17 4
-6 -4 -8 -2 -5 4 4 5 -12 25 -34 44 -23 18 -47 39 -54 46 -8 6 -26 12 -42 13
-20 0 -23 2 -11 7 15 6 12 11 -17 31 -28 19 -38 21 -49 12 -23 -19 -56 3 -50
34 5 29 -19 45 -59 41 -14 -2 -24 1 -21 5 3 5 0 9 -7 9 -7 0 -10 3 -7 6 4 3
16 1 27 -6 12 -6 21 -8 21 -5 0 12 -69 35 -87 29 -14 -4 -15 -3 -4 4 16 12 -3
27 -21 16 -6 -4 -8 -3 -5 3 9 14 -18 24 -40 16 -10 -4 -14 -2 -10 4 8 13 -21
26 -166 74 -72 24 -127 37 -139 33 -14 -4 -18 -2 -14 5 5 7 1 8 -9 4 -10 -3
-20 -1 -24 4 -3 5 -22 12 -42 16 -27 4 -36 2 -36 -9 0 -11 8 -13 31 -9 26 4
25 2 -9 -10 -22 -9 -56 -14 -75 -12 -34 3 -33 4 7 5 33 2 41 5 39 20 -2 13
-19 20 -67 29 -84 16 -396 15 -479 -2z"/>
<path d="M17595 9465 c0 -957 1 -1347 2 -867 2 481 2 1264 0 1740 -1 477 -2
84 -2 -873z"/>
<path d="M10285 10021 c-300 -56 -559 -216 -738 -456 -93 -124 -153 -253 -199
-425 -29 -108 -36 -380 -14 -509 87 -498 474 -877 985 -962 169 -28 410 -7
585 52 406 136 691 461 781 894 26 124 24 362 -5 490 -51 230 -162 436 -317
587 -170 167 -322 252 -563 315 -133 35 -370 41 -515 14z m384 -462 c78 -19
222 -95 284 -150 157 -139 247 -374 233 -604 -7 -119 -24 -191 -70 -290 -81
-175 -213 -296 -398 -363 -65 -24 -87 -27 -203 -27 -117 0 -138 3 -210 28
-250 88 -413 286 -461 558 -73 419 188 806 581 863 45 6 191 -3 244 -15z"/>
<path d="M15515 10029 c-63 -7 -189 -34 -205 -44 -6 -3 -18 -8 -28 -10 -28 -5
-92 -33 -92 -40 0 -3 5 -3 12 1 7 4 8 3 4 -4 -4 -6 -13 -9 -21 -6 -12 5 -46
-12 -154 -77 -16 -10 -25 -23 -23 -35 3 -15 1 -16 -9 -7 -10 10 -24 3 -68 -34
-31 -26 -58 -48 -60 -50 -2 -2 -1 -6 3 -10 4 -5 16 3 27 16 13 16 19 18 19 8
0 -23 -26 -39 -51 -32 -17 6 -21 4 -16 -8 4 -10 1 -14 -6 -11 -17 6 -66 -59
-62 -82 2 -11 4 -19 5 -19 7 0 6 -66 -1 -71 -5 -3 -6 1 -3 9 3 8 0 18 -6 22
-9 6 -9 9 1 15 10 7 10 12 1 23 -7 7 -8 18 -4 22 4 5 1 5 -5 1 -17 -9 -103
-131 -103 -144 0 -6 -6 -17 -13 -24 -19 -19 -80 -146 -80 -166 0 -9 -6 -26
-13 -37 -19 -26 -17 -45 1 -21 17 23 20 14 4 -15 -5 -11 -14 -17 -18 -14 -5 2
-14 -15 -20 -40 -15 -58 -14 -68 4 -62 8 4 17 2 20 -3 4 -6 -1 -10 -10 -10
-11 0 -14 -6 -9 -25 4 -16 2 -25 -6 -25 -6 0 -8 5 -5 10 3 6 2 10 -4 10 -12 0
-25 -98 -19 -139 2 -17 1 -28 -4 -25 -4 3 -8 -11 -8 -30 0 -20 4 -36 8 -36 5
0 9 -26 9 -57 2 -113 3 -120 13 -98 7 14 8 6 5 -28 -3 -30 -1 -46 5 -42 5 3 7
0 4 -8 -6 -17 9 -78 33 -134 16 -37 16 -38 24 -13 6 17 7 12 3 -17 -5 -35 1
-53 36 -119 57 -108 121 -196 208 -284 62 -64 72 -71 68 -48 -3 21 -1 25 11
21 11 -4 11 -8 3 -13 -9 -6 -9 -9 -1 -14 6 -4 9 -11 6 -15 -8 -13 42 -54 56
-46 8 5 10 4 5 -3 -4 -6 6 -19 21 -29 15 -10 30 -20 33 -24 9 -10 53 -31 47
-22 -3 5 3 9 13 9 14 0 16 -3 8 -13 -8 -11 -7 -12 8 -7 10 4 16 4 12 -1 -11
-11 23 -34 50 -35 13 0 20 -4 17 -10 -6 -10 13 -15 50 -12 16 2 17 0 5 -8 -13
-8 -13 -10 3 -11 30 -3 35 -4 43 -11 10 -11 24 -10 24 1 0 5 -9 13 -21 16 -11
4 -18 9 -16 12 9 9 47 -17 47 -32 0 -18 12 -19 29 -2 11 10 13 10 7 0 -9 -15
-1 -16 42 -4 20 6 30 6 27 0 -4 -5 -15 -9 -26 -9 -11 0 -17 -5 -14 -10 3 -6
17 -7 31 -4 14 4 24 2 24 -5 0 -14 47 -15 55 -1 4 6 12 4 21 -5 11 -11 37 -15
97 -14 68 0 184 14 153 18 -5 0 -3 8 4 16 7 9 27 14 49 13 35 -1 35 -1 4 -5
-17 -2 -33 -10 -36 -17 -4 -9 10 -9 57 3 33 8 62 18 64 22 2 4 10 5 18 2 8 -3
14 0 14 7 0 6 4 9 9 5 6 -3 36 9 68 26 78 42 94 54 85 64 -4 5 -1 5 6 1 8 -5
20 0 31 13 10 12 23 21 29 21 14 0 23 28 11 35 -12 8 -2 25 14 25 8 0 8 -3 -2
-9 -10 -6 -10 -10 -2 -16 7 -4 22 4 34 19 13 14 31 26 41 26 17 0 18 -10 13
-167 -3 -93 -9 -181 -13 -197 -5 -23 -4 -27 6 -21 10 6 12 4 7 -9 -4 -10 -7
-22 -7 -27 0 -6 -4 -8 -8 -5 -5 3 -19 -30 -33 -72 -13 -42 -29 -83 -36 -90
-22 -23 -34 -52 -27 -65 4 -6 4 -9 -1 -5 -4 4 -14 3 -22 -3 -16 -14 -18 -33
-1 -23 7 4 8 3 4 -5 -4 -6 -11 -9 -15 -7 -4 3 -32 -17 -61 -44 -30 -28 -62
-53 -72 -56 -10 -3 -16 -10 -13 -15 3 -5 0 -6 -8 -3 -7 2 -25 -4 -38 -15 -13
-11 -19 -20 -12 -21 6 0 15 5 18 10 3 6 14 10 23 10 12 -1 9 -5 -10 -15 -15
-8 -35 -14 -45 -13 -10 0 -31 0 -48 -2 l-30 -2 30 -8 c21 -5 6 -7 -49 -7 -44
0 -81 -4 -83 -9 -5 -14 -189 0 -262 20 -71 19 -149 55 -197 92 -17 12 -40 22
-50 20 -10 -2 -13 -1 -5 1 9 3 1 17 -25 44 -38 39 -71 52 -61 25 3 -8 0 -20
-8 -26 -10 -8 -13 -5 -11 15 0 14 5 25 9 25 5 0 5 4 2 10 -4 6 1 7 11 3 14 -5
14 -3 -2 17 -11 12 -24 28 -30 34 -7 7 -26 40 -43 74 -17 34 -36 62 -43 62 -6
0 -3 -10 8 -22 12 -15 13 -18 3 -10 -9 7 -25 10 -35 6 -16 -5 -16 -4 -4 5 24
17 4 13 -52 -13 -29 -13 -74 -31 -100 -41 -30 -11 -48 -24 -48 -34 0 -11 -2
-13 -8 -4 -6 10 -17 8 -45 -7 -20 -11 -37 -17 -37 -14 0 4 -6 2 -12 -3 -7 -6
-29 -16 -50 -22 -33 -11 -36 -15 -32 -44 5 -35 44 -117 56 -117 5 0 8 -5 8
-11 0 -19 90 -139 102 -136 5 1 12 -6 13 -15 2 -9 12 -27 24 -39 20 -22 21
-22 43 -3 l23 19 -19 -22 c-19 -23 -19 -23 34 -70 29 -27 57 -50 63 -52 5 -2
18 -11 29 -20 39 -34 143 -91 165 -91 13 0 22 -4 19 -8 -4 -6 74 -42 104 -47
3 -1 29 -9 59 -18 63 -19 96 -23 71 -7 -10 6 2 7 35 4 28 -3 52 -8 55 -11 3
-3 -10 -3 -28 -1 -18 3 -35 1 -37 -3 -12 -18 304 -26 389 -10 28 6 69 13 91
16 141 20 355 112 440 191 21 19 42 34 46 34 5 0 7 14 4 31 -5 26 -3 28 9 17
10 -9 11 -15 2 -21 -7 -6 -6 -7 4 -4 8 2 14 12 12 22 -2 9 1 14 7 11 19 -12
50 25 44 55 -3 14 -1 29 5 32 5 4 7 -5 4 -21 -3 -21 -2 -24 8 -15 8 7 10 22 5
43 -5 25 -9 29 -17 19 -8 -12 -9 -11 -5 1 2 8 9 15 15 15 6 0 18 9 26 20 9 11
16 15 16 8 0 -6 3 -20 6 -30 5 -15 4 -15 -5 -3 -12 17 -12 17 -17 -24 -3 -28
-1 -27 33 20 35 49 133 242 133 264 0 6 -9 2 -20 -8 -14 -13 -18 -25 -14 -38
4 -10 4 -16 -1 -12 -4 4 -9 22 -11 40 -2 19 0 28 4 20 6 -9 12 -6 21 12 8 14
10 30 5 37 -6 10 -10 7 -16 -11 l-7 -25 2 24 c3 34 23 37 34 5 8 -25 11 -21
30 47 22 82 30 154 13 129 -6 -9 -10 -10 -10 -3 0 7 7 16 16 21 9 5 18 32 24
69 10 77 11 357 0 323 -6 -18 -8 -20 -9 -7 -1 10 -5 15 -11 12 -6 -4 -9 10 -9
37 l2 43 7 -35 c4 -19 8 -29 9 -22 0 7 6 10 11 7 7 -4 10 110 10 334 0 226 -4
342 -10 346 -8 5 -8 11 0 19 7 9 9 219 8 667 l-3 653 -35 3 c-28 2 -32 0 -17
-8 9 -5 21 -8 26 -4 5 3 13 0 17 -6 5 -9 -2 -10 -27 -4 -19 4 -46 9 -61 9 -16
1 -28 3 -28 6 0 3 -79 4 -176 2 l-176 -3 4 -94 c3 -90 2 -95 -17 -95 -11 1
-31 15 -45 31 -21 26 -90 79 -148 114 -9 6 -19 13 -22 16 -3 3 -27 15 -54 28
-36 16 -51 19 -56 11 -5 -9 -9 -9 -14 -1 -4 6 -4 11 1 11 4 1 -10 7 -32 15
-22 8 -48 12 -57 9 -10 -3 -18 0 -18 6 0 7 -8 9 -21 5 -15 -5 -19 -4 -15 4 5
7 -10 11 -46 12 -29 0 -80 2 -113 3 -33 1 -87 -1 -120 -5z m265 -451 c0 -13
48 -9 52 4 4 10 10 10 29 0 23 -12 23 -12 2 -8 -13 2 -23 0 -23 -4 0 -12 60
-31 74 -23 6 3 8 3 4 -2 -9 -10 62 -46 75 -38 6 3 7 1 3 -5 -4 -7 -3 -12 2
-12 5 0 27 -14 48 -30 45 -35 115 -100 108 -100 -3 0 1 -6 8 -14 10 -10 16
-11 27 -3 10 9 16 7 26 -6 8 -11 15 -14 18 -7 4 7 5 7 4 0 -2 -7 -6 -11 -11
-10 -5 1 -13 -4 -18 -12 -6 -9 -7 -6 -3 10 7 24 -9 31 -18 8 -7 -17 16 -40 27
-28 5 4 6 0 4 -9 -4 -19 42 -119 54 -119 11 0 -1 44 -13 48 -5 2 -9 8 -9 14 0
6 6 6 15 -2 8 -7 15 -19 15 -26 0 -8 5 -14 11 -14 6 0 9 7 5 15 -3 8 -1 15 5
15 7 0 9 -10 5 -24 -3 -14 -1 -26 5 -28 6 -2 4 -14 -6 -33 l-17 -30 6 33 c3
17 1 32 -4 32 -17 0 -20 -18 -9 -47 26 -65 32 -105 38 -248 4 -112 9 -149 19
-148 20 5 13 -14 -8 -20 -17 -4 -19 -11 -15 -44 2 -22 1 -32 -4 -25 -5 8 -8
-5 -7 -32 1 -25 -5 -51 -12 -58 -11 -11 -12 -9 -7 7 6 19 6 19 -5 2 -6 -10 -9
-25 -6 -33 3 -8 2 -13 -3 -10 -4 3 -19 -18 -32 -46 -13 -29 -41 -74 -62 -100
-21 -27 -35 -53 -32 -58 3 -6 1 -10 -5 -10 -19 0 -70 -43 -63 -53 3 -6 1 -7
-5 -3 -6 3 -14 0 -19 -7 -12 -19 -174 -97 -203 -97 -17 0 -21 -3 -13 -11 8 -8
19 -7 40 4 23 12 31 13 46 2 16 -11 16 -13 2 -19 -9 -3 -13 -2 -10 4 9 14 -7
12 -46 -5 -19 -8 -28 -14 -20 -15 8 0 12 -2 9 -5 -3 -3 -16 -1 -29 4 -21 9
-22 10 -4 11 18 1 18 2 2 8 -10 4 -37 6 -60 3 -34 -3 -38 -5 -22 -13 15 -6 12
-7 -12 -4 -18 3 -35 1 -38 -4 -3 -6 -14 -10 -23 -9 -14 0 -13 2 3 9 36 14 -52
24 -173 19 -32 -2 -50 6 -40 16 3 3 17 1 31 -4 15 -6 28 -7 31 -3 3 5 -22 14
-55 21 -32 8 -59 17 -59 21 0 12 -49 30 -65 24 -17 -7 -21 -24 -5 -24 6 0 10
5 10 11 0 6 5 9 11 7 15 -5 7 -22 -12 -25 -19 -3 -76 43 -66 53 4 4 1 14 -6
22 -9 11 -4 11 16 -2 30 -20 35 -29 12 -20 -8 4 -15 2 -15 -4 0 -14 24 -22 39
-12 9 5 2 16 -25 36 -22 16 -42 33 -45 38 -4 5 -13 5 -20 1 -8 -5 -11 -5 -7 0
4 4 -8 26 -28 47 -20 22 -53 66 -74 99 -20 32 -41 55 -45 51 -5 -4 -5 -2 -1 5
3 6 -2 29 -13 50 -10 21 -22 45 -25 53 -3 8 -4 5 -2 -7 6 -31 -20 -30 -28 1
-7 27 1 56 15 56 5 0 3 12 -3 28 -19 42 -19 370 0 388 9 9 12 24 8 40 -4 16
-3 23 3 20 15 -10 23 29 11 58 -7 18 -7 33 0 46 5 10 7 25 4 33 -10 26 18 31
36 7 l18 -23 7 24 c4 13 8 25 7 26 -1 1 12 16 29 34 16 17 27 34 24 37 -3 3 8
13 24 23 16 10 40 32 52 48 13 17 28 31 33 31 6 0 22 9 36 20 20 16 21 19 5
14 -25 -9 -18 -1 14 16 17 9 21 9 16 0 -4 -6 13 -1 36 11 24 12 38 24 31 27
-7 2 -19 -2 -28 -8 -8 -7 -17 -10 -20 -7 -11 11 36 27 65 22 23 -4 30 -1 34
15 3 11 11 20 19 20 10 0 10 -2 -2 -10 -21 -13 -10 -19 23 -13 22 4 26 8 15
15 -10 8 -10 9 2 5 8 -2 47 -1 85 2 95 8 165 8 165 -1z"/>
<path d="M18772 10028 c-89 -12 -233 -60 -326 -108 -307 -157 -509 -432 -593
-805 -24 -109 -24 -416 0 -523 104 -456 411 -779 848 -896 409 -109 834 0
1136 291 68 65 163 178 163 191 -1 10 -383 262 -395 261 -6 0 -33 -28 -61 -62
-136 -167 -324 -257 -533 -257 -153 0 -292 45 -399 129 -81 65 -196 222 -175
241 4 4 82 38 173 75 187 77 342 141 720 298 85 35 272 113 415 171 143 59
264 111 269 116 10 10 -38 135 -97 255 -73 147 -185 294 -297 389 -51 44 -183
136 -194 136 -3 0 -29 11 -58 25 -163 75 -388 103 -596 73z m371 -468 c36 -11
85 -32 110 -46 49 -27 128 -108 153 -156 17 -34 31 -26 -241 -138 -552 -227
-734 -302 -771 -320 -23 -10 -45 -16 -48 -13 -10 11 -7 78 10 164 38 204 169
376 359 470 144 71 283 84 428 39z"/>
</g>
</svg>
