<?xml version="1.0" standalone="no"?>
<!DOCTYPE svg PUBLIC "-//W3C//DTD SVG 20010904//EN"
 "http://www.w3.org/TR/2001/REC-SVG-20010904/DTD/svg10.dtd">
<svg version="1.0" xmlns="http://www.w3.org/2000/svg"
 width="225.000000pt" height="225.000000pt" viewBox="0 0 225.000000 225.000000"
 preserveAspectRatio="xMidYMid meet">
<metadata>
Created by potrace 1.16, written by Peter Selinger 2001-2019
</metadata>
<g transform="translate(0.000000,225.000000) scale(0.100000,-0.100000)"
fill="#000000" stroke="none">
<path d="M1031 2129 c-115 -11 -171 -24 -275 -66 -260 -104 -456 -298 -561
-557 l-41 -101 -77 -3 -77 -3 0 -274 0 -274 77 -3 77 -3 41 -101 c106 -260
300 -453 564 -559 117 -46 225 -66 366 -66 141 0 249 20 366 66 264 106 458
299 564 559 l41 101 77 3 77 3 0 274 0 274 -77 3 -77 3 -41 101 c-168 414
-576 663 -1024 623z m290 -367 c107 -38 172 -77 245 -145 69 -65 154 -177 154
-204 0 -10 -124 -13 -595 -13 -475 0 -595 3 -595 13 0 22 70 120 128 180 89
91 183 145 314 182 77 22 274 14 349 -13z m-542 -454 c23 -13 51 -38 62 -55
l21 -33 -47 -20 -47 -20 -28 30 c-77 82 -196 -29 -150 -140 28 -69 100 -91
146 -45 31 31 24 45 -22 45 -35 0 -35 1 -32 38 l3 37 98 3 97 3 0 -33 c0 -96
-58 -175 -146 -197 -83 -21 -157 1 -211 63 -42 47 -57 97 -50 164 11 109 95
182 208 182 39 0 69 -7 98 -22z m921 12 c60 -17 63 -22 44 -64 -13 -26 -22
-35 -33 -30 -36 16 -77 16 -90 0 -19 -23 -2 -39 69 -65 44 -16 64 -30 75 -51
32 -62 7 -143 -55 -175 -45 -23 -129 -21 -179 4 -23 12 -41 23 -41 26 0 11 43
75 49 73 3 -2 23 -12 43 -22 31 -16 42 -17 63 -8 46 21 30 52 -40 79 -80 31
-98 51 -98 107 0 100 86 156 193 126z m-520 -45 l0 -45 -45 0 -45 0 0 -150 0
-150 -50 0 -50 0 0 150 0 150 -40 0 -40 0 0 45 0 45 135 0 135 0 0 -45z m268
3 l-3 -43 -61 -3 -60 -3 4 -29 c4 -27 7 -29 56 -32 l51 -3 3 -42 3 -43 -58 0
-58 0 3 -75 4 -75 -56 0 -56 0 0 195 0 195 116 0 115 0 -3 -42z m272 -441 c0
-27 -85 -139 -154 -204 -73 -69 -148 -112 -256 -149 -78 -27 -292 -27 -370 0
-108 37 -183 80 -256 149 -69 65 -154 177 -154 204 0 10 124 13 595 13 471 0
595 -3 595 -13z"/>
</g>
</svg>
