<svg id="svg" version="1.1" xmlns="http://www.w3.org/2000/svg" xmlns:xlink="http://www.w3.org/1999/xlink" width="400" height="261.1111111111111" viewBox="0, 0, 400,261.1111111111111"><g id="svgg"><path id="path0" d="M253.575 38.934 C 251.095 39.123,250.473 39.271,248.872 40.055 C 247.858 40.552,246.363 41.269,245.551 41.649 C 244.739 42.028,244.012 42.501,243.936 42.700 C 243.859 42.899,242.937 43.617,241.885 44.297 C 240.834 44.977,239.828 45.741,239.649 45.996 C 239.470 46.250,238.744 46.884,238.036 47.404 C 236.945 48.205,236.640 48.633,236.041 50.201 C 235.651 51.219,234.992 52.440,234.575 52.915 C 234.159 53.390,233.537 54.603,233.194 55.610 C 232.852 56.617,232.282 57.950,231.927 58.571 C 231.064 60.084,231.060 60.105,230.437 67.286 L 229.893 73.561 230.427 79.697 C 231.007 86.364,231.154 87.139,232.101 88.547 C 232.448 89.062,232.928 90.095,233.168 90.841 C 233.409 91.587,233.887 92.587,234.233 93.062 C 234.578 93.537,235.267 94.698,235.764 95.642 C 236.649 97.324,239.490 100.327,240.196 100.327 C 240.373 100.327,241.037 100.856,241.672 101.502 C 242.307 102.149,242.955 102.678,243.114 102.678 C 243.272 102.678,244.083 103.089,244.917 103.591 C 249.822 106.544,263.444 106.928,268.975 104.269 C 270.124 103.716,271.653 103.054,272.371 102.799 C 273.110 102.536,274.282 101.784,275.070 101.069 C 275.836 100.373,276.577 99.804,276.716 99.804 C 277.967 99.804,277.941 94.659,276.683 93.143 C 276.217 92.581,271.296 94.455,269.508 95.876 C 268.946 96.323,267.703 96.898,266.653 97.196 C 265.631 97.486,263.775 98.024,262.529 98.392 C 259.787 99.202,257.215 99.173,254.213 98.299 C 253.135 97.985,251.430 97.524,250.425 97.274 C 248.936 96.905,248.386 96.614,247.469 95.712 C 246.849 95.102,246.137 94.539,245.888 94.459 C 244.827 94.123,242.200 90.731,241.669 89.012 C 241.384 88.091,240.799 86.893,240.367 86.351 C 237.639 82.918,237.751 62.753,240.519 59.124 C 240.885 58.644,241.466 57.423,241.811 56.410 C 242.272 55.055,242.786 54.187,243.753 53.128 C 244.477 52.337,245.069 51.582,245.069 51.452 C 245.069 51.322,245.568 50.903,246.179 50.522 C 246.790 50.140,247.778 49.383,248.374 48.838 C 249.557 47.759,250.093 47.571,254.265 46.777 C 259.252 45.827,266.555 46.818,268.583 48.719 C 268.942 49.056,270.011 49.695,270.958 50.139 C 271.906 50.583,272.894 51.182,273.154 51.469 C 274.106 52.520,276.615 52.018,277.098 50.679 C 277.684 49.056,277.412 45.199,276.712 45.199 C 276.612 45.199,275.742 44.499,274.778 43.643 C 273.346 42.372,272.681 41.984,271.155 41.530 C 270.127 41.223,268.628 40.629,267.824 40.208 C 265.506 38.995,259.639 38.470,253.575 38.934 M132.684 39.326 C 130.787 39.931,130.895 37.963,130.895 71.832 L 130.895 102.306 131.483 103.472 C 132.635 105.757,132.062 105.683,148.579 105.683 L 162.996 105.683 163.797 104.915 C 165.220 103.552,164.760 100.418,162.951 99.151 C 162.475 98.817,160.723 98.759,151.204 98.759 L 140.015 98.759 139.377 97.387 L 138.738 96.016 138.720 69.105 C 138.702 40.472,138.700 40.421,137.688 39.687 C 136.773 39.023,134.213 38.838,132.684 39.326 M192.487 39.389 C 192.090 39.635,191.701 40.040,191.622 40.290 C 191.543 40.540,191.022 41.427,190.465 42.261 C 189.753 43.328,189.282 44.473,188.880 46.121 C 188.565 47.410,187.913 49.185,187.431 50.066 C 186.949 50.947,186.313 52.703,186.018 53.969 C 185.723 55.236,185.116 56.910,184.670 57.689 C 184.224 58.469,183.579 60.238,183.237 61.620 C 182.894 63.002,182.345 64.546,182.017 65.051 C 181.228 66.265,180.889 67.165,180.391 69.366 C 180.164 70.372,179.585 71.901,179.105 72.763 C 178.626 73.625,177.987 75.370,177.685 76.641 C 177.384 77.912,176.739 79.675,176.253 80.560 C 175.767 81.445,175.231 82.815,175.062 83.605 C 174.641 85.575,174.031 87.220,173.318 88.308 C 172.989 88.811,172.474 90.279,172.174 91.571 C 171.866 92.895,171.243 94.608,170.744 95.499 C 169.621 97.508,168.012 104.029,168.496 104.612 C 169.450 105.761,172.960 106.231,174.528 105.420 C 175.733 104.798,177.255 101.920,177.903 99.043 C 178.213 97.664,178.798 95.986,179.234 95.224 C 179.662 94.476,180.203 92.996,180.437 91.935 C 181.468 87.257,181.447 87.263,195.874 87.263 L 206.986 87.263 208.517 88.503 C 210.209 89.873,210.329 90.092,211.093 93.239 C 211.385 94.442,211.978 96.044,212.410 96.798 C 212.842 97.553,213.447 99.252,213.755 100.573 C 214.689 104.579,216.002 105.801,219.379 105.809 C 222.106 105.815,222.988 105.066,222.734 102.961 C 222.430 100.433,221.771 98.160,220.867 96.519 C 220.386 95.646,219.802 94.058,219.569 92.992 C 219.336 91.925,218.747 90.313,218.260 89.410 C 217.773 88.507,217.125 86.744,216.819 85.491 C 216.513 84.238,215.869 82.493,215.387 81.613 C 214.905 80.732,214.271 78.984,213.978 77.727 C 213.682 76.460,213.047 74.729,212.552 73.841 C 212.061 72.961,211.463 71.359,211.225 70.281 C 210.986 69.203,210.391 67.598,209.903 66.713 C 209.415 65.828,208.771 64.065,208.472 62.794 C 208.173 61.523,207.526 59.760,207.035 58.875 C 206.526 57.958,205.909 56.253,205.598 54.906 C 205.262 53.443,204.764 52.105,204.291 51.391 C 203.853 50.729,203.304 49.307,203.000 48.046 C 202.566 46.247,201.606 43.951,199.623 39.974 C 199.104 38.933,193.910 38.507,192.487 39.389 M80.862 39.483 C 80.013 39.970,78.883 41.098,78.487 41.855 C 78.176 42.451,78.119 47.374,78.119 73.488 L 78.119 104.416 78.790 105.046 C 79.880 106.071,84.422 106.001,85.329 104.947 L 85.957 104.216 85.957 93.017 L 85.957 81.817 86.600 81.052 L 87.244 80.287 91.499 80.133 C 94.572 80.022,96.263 79.835,97.583 79.461 C 98.589 79.175,100.702 78.694,102.277 78.391 C 104.921 77.884,107.059 77.022,107.517 76.281 C 107.607 76.136,108.373 75.668,109.219 75.240 C 110.065 74.813,110.893 74.211,111.058 73.902 C 111.223 73.593,111.799 72.858,112.337 72.268 C 114.171 70.258,116.202 65.797,116.514 63.096 C 117.084 58.153,116.698 52.190,115.728 50.947 C 115.448 50.588,114.761 49.411,114.202 48.331 C 112.899 45.817,108.830 42.044,106.992 41.647 C 106.559 41.554,105.029 40.992,103.592 40.400 L 100.980 39.322 91.182 39.253 C 84.189 39.204,81.235 39.270,80.862 39.483 M291.966 39.491 C 291.129 39.958,289.990 41.092,289.591 41.855 C 289.280 42.450,289.223 47.228,289.223 72.433 L 289.223 102.306 289.811 103.472 C 290.966 105.762,290.243 105.672,308.113 105.754 L 323.738 105.825 324.508 105.055 C 325.959 103.605,325.362 99.959,323.562 99.275 C 323.162 99.123,318.023 99.020,310.801 99.020 C 297.183 99.020,298.248 99.186,297.460 96.950 C 297.129 96.014,297.061 94.143,297.061 86.075 L 297.061 76.330 297.737 75.526 L 298.414 74.722 308.253 74.717 C 317.266 74.711,318.182 74.670,319.158 74.227 C 321.678 73.082,322.327 70.463,320.479 68.893 C 318.647 67.337,319.237 67.409,308.370 67.408 L 298.386 67.407 297.723 66.432 L 297.061 65.457 297.061 56.956 L 297.061 48.456 297.714 47.495 L 298.367 46.534 310.593 46.454 C 324.286 46.365,323.708 46.448,324.604 44.460 C 325.182 43.180,324.994 40.849,324.238 39.915 L 323.756 39.321 308.122 39.260 C 296.997 39.217,292.338 39.283,291.966 39.491 M99.376 47.143 C 102.901 47.783,106.342 50.588,107.844 54.043 C 108.886 56.443,108.326 64.907,107.040 66.169 C 106.725 66.479,106.113 67.266,105.681 67.916 C 105.248 68.567,104.543 69.266,104.113 69.468 C 103.683 69.670,102.893 70.227,102.358 70.705 C 101.823 71.183,101.117 71.637,100.790 71.715 C 98.586 72.238,97.000 72.396,92.478 72.542 L 87.373 72.708 86.665 71.866 L 85.957 71.025 85.957 59.793 C 85.957 45.212,85.401 46.382,92.227 46.581 C 94.886 46.659,98.103 46.911,99.376 47.143 M197.143 54.462 C 197.524 55.892,198.168 57.656,198.575 58.381 C 198.982 59.106,199.573 60.758,199.887 62.051 C 200.201 63.344,200.842 65.108,201.311 65.970 C 201.780 66.832,202.368 68.478,202.619 69.628 C 202.869 70.777,203.527 72.600,204.081 73.677 C 204.635 74.755,205.263 76.460,205.476 77.466 L 205.864 79.295 205.083 80.013 L 204.303 80.732 195.881 80.726 C 185.637 80.719,184.206 80.378,185.320 78.208 C 185.530 77.800,185.903 76.525,186.150 75.376 C 186.396 74.226,187.055 72.345,187.613 71.195 C 188.172 70.046,188.808 68.223,189.027 67.146 C 189.246 66.068,189.837 64.391,190.341 63.420 C 190.845 62.448,191.502 60.567,191.801 59.239 C 192.318 56.941,192.986 55.509,195.100 52.157 C 195.957 50.798,196.260 51.140,197.143 54.462 M121.881 149.989 C 117.788 150.189,116.465 150.467,114.566 151.527 C 113.847 151.928,112.828 152.394,112.302 152.562 C 111.775 152.730,110.834 153.314,110.211 153.859 C 109.589 154.404,108.550 155.182,107.903 155.587 C 105.441 157.129,103.105 159.505,102.589 160.992 C 102.324 161.754,101.766 162.812,101.348 163.342 C 100.930 163.873,100.282 165.166,99.909 166.216 C 99.536 167.266,98.941 168.629,98.587 169.244 C 96.300 173.220,96.346 196.515,98.647 199.633 C 98.987 200.094,99.574 201.398,99.951 202.531 C 100.328 203.663,100.917 204.924,101.260 205.331 C 101.603 205.739,102.111 206.602,102.389 207.250 C 102.959 208.581,105.194 210.882,106.658 211.646 C 107.195 211.926,107.822 212.442,108.052 212.793 C 108.281 213.143,108.997 213.685,109.641 213.997 C 110.286 214.309,111.147 214.846,111.556 215.189 C 114.533 217.694,132.397 218.187,136.497 215.877 C 136.949 215.623,137.951 215.062,138.726 214.631 C 139.500 214.200,140.671 213.364,141.327 212.772 C 141.984 212.181,142.834 211.535,143.216 211.335 C 144.473 210.680,147.108 207.978,147.592 206.848 C 147.853 206.241,148.361 205.392,148.721 204.962 C 149.082 204.532,149.689 203.311,150.071 202.249 C 150.454 201.188,151.052 199.979,151.402 199.563 C 152.280 198.519,152.546 197.400,152.847 193.468 C 152.991 191.600,153.295 188.594,153.525 186.788 C 153.906 183.785,153.906 183.151,153.526 179.342 C 153.297 177.053,152.985 173.661,152.831 171.806 C 152.546 168.356,152.431 167.942,151.360 166.529 C 151.022 166.082,150.457 164.871,150.106 163.837 C 149.754 162.803,149.130 161.523,148.719 160.992 C 148.308 160.461,147.718 159.615,147.409 159.112 C 146.775 158.079,144.481 156.000,143.303 155.389 C 142.873 155.166,142.207 154.631,141.823 154.199 C 138.900 150.912,132.158 149.489,121.881 149.989 M38.243 150.394 C 37.937 150.462,37.408 150.815,37.067 151.178 L 36.447 151.838 36.375 183.641 L 36.304 215.443 36.915 216.017 C 38.232 217.254,42.537 217.279,43.760 216.056 C 44.270 215.546,44.287 215.144,44.367 201.365 L 44.449 187.198 45.134 186.479 L 45.820 185.761 59.725 185.761 L 73.631 185.761 74.307 186.565 L 74.984 187.369 74.984 201.469 L 74.984 215.569 75.585 216.171 C 76.793 217.378,80.878 217.223,82.324 215.915 C 82.826 215.460,83.086 154.464,82.595 152.216 C 82.187 150.346,77.557 149.389,75.882 150.829 L 75.114 151.489 74.984 164.294 L 74.853 177.098 74.220 177.772 L 73.586 178.445 59.677 178.445 L 45.768 178.445 45.092 177.642 L 44.415 176.838 44.410 165.819 C 44.403 150.365,44.424 150.457,40.839 150.338 C 39.716 150.300,38.548 150.326,38.243 150.394 M171.394 150.570 C 169.585 151.189,169.693 149.129,169.693 182.887 L 169.693 213.325 170.270 214.573 C 171.347 216.907,170.837 216.840,187.459 216.845 L 201.829 216.849 202.573 216.254 C 203.935 215.164,203.875 212.600,202.451 210.978 L 201.644 210.059 190.477 210.059 C 180.168 210.059,179.280 210.024,178.911 209.602 C 177.756 208.277,177.799 209.297,177.662 179.882 C 177.560 158.053,177.459 151.801,177.201 151.350 C 176.609 150.314,173.402 149.883,171.394 150.570 M214.213 150.735 C 211.113 152.419,211.331 149.796,211.420 184.324 C 211.506 217.731,211.316 214.948,213.600 216.274 L 214.631 216.872 225.343 216.764 C 236.395 216.653,237.710 216.535,239.726 215.481 C 240.164 215.251,241.339 214.804,242.338 214.487 C 243.337 214.170,244.742 213.469,245.460 212.928 C 246.179 212.388,247.376 211.641,248.120 211.269 C 248.864 210.896,249.549 210.469,249.641 210.319 C 249.734 210.170,250.446 209.577,251.223 209.003 C 252.001 208.428,252.829 207.578,253.063 207.114 C 253.296 206.650,253.825 205.915,254.237 205.480 C 254.649 205.045,255.295 203.928,255.673 202.998 C 256.051 202.067,256.759 200.865,257.246 200.326 C 257.733 199.787,258.133 199.316,258.135 199.281 C 258.165 198.717,259.836 189.710,260.231 187.982 C 260.976 184.721,260.834 179.936,259.883 176.225 C 259.514 174.788,259.015 172.439,258.774 171.006 C 258.245 167.864,258.122 167.515,257.135 166.391 C 256.711 165.908,256.043 164.749,255.651 163.815 C 255.258 162.880,254.568 161.687,254.118 161.162 C 253.667 160.638,253.087 159.903,252.829 159.530 C 252.571 159.157,251.719 158.441,250.935 157.940 C 250.151 157.438,249.510 156.924,249.510 156.796 C 249.510 156.668,248.711 156.144,247.734 155.630 C 246.757 155.117,245.624 154.388,245.217 154.011 C 244.256 153.120,243.736 152.936,240.826 152.460 C 239.495 152.243,237.172 151.691,235.663 151.235 L 232.920 150.405 224.037 150.314 C 215.620 150.228,215.104 150.251,214.213 150.735 M277.992 150.806 C 277.308 151.155,276.491 151.877,276.032 152.537 L 275.245 153.670 275.245 183.497 L 275.245 213.325 275.822 214.573 C 276.907 216.924,276.219 216.839,294.303 216.846 L 309.965 216.852 310.698 216.150 C 311.957 214.943,311.657 212.099,310.124 210.711 C 309.569 210.209,309.079 210.185,296.968 210.059 L 284.389 209.928 283.812 208.752 C 283.248 207.603,283.235 207.355,283.224 197.473 L 283.214 187.369 283.890 186.565 L 284.566 185.761 294.480 185.761 C 305.327 185.761,305.519 185.737,306.783 184.235 C 308.239 182.504,307.903 180.967,305.723 179.395 L 304.587 178.576 294.569 178.502 L 284.551 178.428 283.883 177.633 L 283.214 176.838 283.214 168.114 L 283.214 159.391 284.014 158.479 L 284.814 157.568 297.223 157.491 L 309.632 157.413 310.138 156.760 C 311.034 155.605,311.290 154.317,310.937 152.740 C 310.363 150.175,311.682 150.370,294.356 150.283 L 279.164 150.207 277.992 150.806 M328.413 150.521 C 327.584 150.849,326.129 152.236,325.647 153.155 C 325.263 153.889,325.060 214.675,325.439 215.662 C 325.811 216.632,328.390 217.217,330.664 216.847 C 333.168 216.439,332.967 217.665,333.116 201.841 L 333.246 187.893 333.880 187.219 C 334.883 186.151,342.206 186.500,343.527 187.679 C 343.764 187.891,344.633 188.382,345.458 188.771 C 346.982 189.489,350.098 192.457,350.098 193.190 C 350.098 193.386,350.567 194.171,351.140 194.934 C 351.729 195.718,352.353 196.951,352.573 197.769 C 352.788 198.565,353.422 200.098,353.983 201.176 C 354.543 202.253,355.238 204.077,355.526 205.227 C 355.814 206.378,356.410 207.906,356.851 208.624 C 357.292 209.341,357.900 210.869,358.203 212.018 C 359.367 216.438,363.060 218.549,366.062 216.510 C 367.561 215.492,367.193 211.040,365.376 208.221 C 364.855 207.411,364.306 206.050,364.031 204.881 C 363.775 203.796,363.177 202.262,362.702 201.473 C 362.227 200.684,361.561 199.056,361.223 197.855 C 360.885 196.655,360.294 195.219,359.909 194.664 C 359.525 194.110,358.874 192.752,358.461 191.647 C 357.964 190.315,357.398 189.333,356.779 188.732 C 356.266 188.234,355.846 187.692,355.846 187.528 C 355.846 187.364,355.259 186.687,354.541 186.023 L 353.236 184.817 354.867 183.116 C 355.765 182.181,356.911 181.162,357.413 180.853 C 358.842 179.974,360.790 177.550,361.477 175.798 C 361.820 174.923,362.218 174.066,362.362 173.892 C 363.778 172.186,363.767 164.411,362.346 162.077 C 362.070 161.625,361.621 160.603,361.347 159.807 C 360.575 157.562,359.930 156.850,355.668 153.531 C 355.325 153.264,354.254 152.842,353.289 152.592 C 352.324 152.343,350.862 151.820,350.041 151.430 C 347.722 150.329,330.699 149.614,328.413 150.521 M127.566 157.283 C 128.384 157.570,130.421 158.028,132.094 158.299 C 135.023 158.775,135.174 158.831,136.215 159.846 C 136.810 160.426,138.269 161.819,139.458 162.942 C 140.979 164.378,141.694 165.257,141.868 165.905 C 142.005 166.412,142.468 167.382,142.898 168.060 C 144.104 169.962,144.469 171.499,145.551 179.229 L 146.118 183.279 145.407 188.374 C 144.482 195.007,144.113 196.566,143.058 198.302 C 142.578 199.092,142.040 200.223,141.864 200.816 C 141.637 201.581,141.004 202.422,139.681 203.719 C 135.674 207.647,134.961 208.241,133.908 208.524 C 133.328 208.680,132.090 209.173,131.156 209.621 C 128.741 210.778,124.309 210.831,121.097 209.742 C 119.948 209.352,118.077 208.836,116.940 208.596 C 114.686 208.119,115.132 208.444,110.530 203.930 C 108.914 202.345,108.611 201.894,108.159 200.403 C 107.875 199.463,107.306 198.201,106.895 197.599 C 104.247 193.716,104.401 173.906,107.110 169.968 C 107.511 169.385,108.080 168.109,108.372 167.133 C 108.862 165.500,109.078 165.194,111.082 163.293 C 112.280 162.157,113.730 160.766,114.304 160.203 C 115.343 159.184,115.794 158.980,119.791 157.716 C 123.404 156.575,125.257 156.471,127.566 157.283 M229.176 157.818 C 235.207 158.230,237.799 158.667,239.118 159.493 C 239.733 159.877,240.882 160.583,241.672 161.061 C 242.462 161.540,243.521 162.311,244.024 162.775 C 244.526 163.239,245.318 163.837,245.784 164.103 C 246.296 164.396,246.867 165.077,247.234 165.833 C 247.566 166.519,248.215 167.599,248.677 168.233 C 249.138 168.868,249.679 169.939,249.880 170.614 C 250.080 171.289,250.545 172.476,250.912 173.252 C 252.771 177.182,252.949 189.704,251.199 193.466 C 250.998 193.899,250.480 195.301,250.048 196.582 C 249.615 197.864,248.978 199.216,248.631 199.587 C 248.284 199.958,247.736 200.790,247.413 201.437 C 246.708 202.850,244.505 205.018,243.240 205.544 C 242.737 205.754,241.903 206.332,241.387 206.829 C 240.327 207.849,238.827 208.336,235.876 208.616 C 234.825 208.716,232.515 209.082,230.743 209.428 C 228.322 209.902,226.656 210.059,224.039 210.059 L 220.556 210.059 219.945 208.818 L 219.334 207.577 219.264 183.650 L 219.195 159.724 219.985 158.634 L 220.774 157.544 222.972 157.544 C 224.181 157.544,226.973 157.667,229.176 157.818 M342.090 157.805 C 346.372 158.118,348.394 158.502,349.715 159.253 C 350.900 159.926,353.233 162.301,353.233 162.834 C 353.233 163.025,353.479 163.647,353.780 164.216 C 355.049 166.617,355.450 170.126,354.640 171.731 C 352.217 176.524,351.132 177.343,344.481 179.395 C 342.487 180.010,334.656 180.218,334.199 179.668 C 333.307 178.593,333.122 176.620,333.119 168.174 C 333.114 156.552,332.629 157.113,342.090 157.805 " stroke="none" fill="#181818" fill-rule="evenodd"></path><path id="path1" d="M0.000 130.634 L 0.000 261.267 200.000 261.267 L 400.000 261.267 400.000 130.634 L 400.000 0.000 200.000 0.000 L 0.000 0.000 0.000 130.634 M264.925 39.213 C 265.715 39.340,267.020 39.787,267.824 40.208 C 268.628 40.629,270.127 41.223,271.155 41.530 C 272.681 41.984,273.346 42.372,274.778 43.643 C 275.742 44.499,276.612 45.199,276.712 45.199 C 277.412 45.199,277.684 49.056,277.098 50.679 C 276.615 52.018,274.106 52.520,273.154 51.469 C 272.894 51.182,271.906 50.583,270.958 50.139 C 270.011 49.695,268.942 49.056,268.583 48.719 C 266.555 46.818,259.252 45.827,254.265 46.777 C 250.093 47.571,249.557 47.759,248.374 48.838 C 247.778 49.383,246.790 50.140,246.179 50.522 C 245.568 50.903,245.069 51.322,245.069 51.452 C 245.069 51.582,244.477 52.337,243.753 53.128 C 242.786 54.187,242.272 55.055,241.811 56.410 C 241.466 57.423,240.885 58.644,240.519 59.124 C 237.751 62.753,237.639 82.918,240.367 86.351 C 240.799 86.893,241.384 88.091,241.669 89.012 C 242.200 90.731,244.827 94.123,245.888 94.459 C 246.137 94.539,246.849 95.102,247.469 95.712 C 248.386 96.614,248.936 96.905,250.425 97.274 C 251.430 97.524,253.135 97.985,254.213 98.299 C 257.215 99.173,259.787 99.202,262.529 98.392 C 263.775 98.024,265.631 97.486,266.653 97.196 C 267.703 96.898,268.946 96.323,269.508 95.876 C 271.296 94.455,276.217 92.581,276.683 93.143 C 277.941 94.659,277.967 99.804,276.716 99.804 C 276.577 99.804,275.836 100.373,275.070 101.069 C 274.282 101.784,273.110 102.536,272.371 102.799 C 271.653 103.054,270.124 103.716,268.975 104.269 C 263.444 106.928,249.822 106.544,244.917 103.591 C 244.083 103.089,243.272 102.678,243.114 102.678 C 242.955 102.678,242.307 102.149,241.672 101.502 C 241.037 100.856,240.373 100.327,240.196 100.327 C 239.490 100.327,236.649 97.324,235.764 95.642 C 235.267 94.698,234.578 93.537,234.233 93.062 C 233.887 92.587,233.409 91.587,233.168 90.841 C 232.928 90.095,232.448 89.062,232.101 88.547 C 231.154 87.139,231.007 86.364,230.427 79.697 L 229.893 73.561 230.437 67.286 C 231.060 60.105,231.064 60.084,231.927 58.571 C 232.282 57.950,232.852 56.617,233.194 55.610 C 233.537 54.603,234.159 53.390,234.575 52.915 C 234.992 52.440,235.651 51.219,236.041 50.201 C 236.640 48.633,236.945 48.205,238.036 47.404 C 238.744 46.884,239.470 46.250,239.649 45.996 C 239.828 45.741,240.834 44.977,241.885 44.297 C 242.937 43.617,243.859 42.899,243.936 42.700 C 244.012 42.501,244.739 42.028,245.551 41.649 C 246.363 41.269,247.858 40.552,248.872 40.055 C 251.533 38.752,259.445 38.337,264.925 39.213 M137.688 39.687 C 138.700 40.421,138.702 40.472,138.720 69.105 L 138.738 96.016 139.377 97.387 L 140.015 98.759 151.204 98.759 C 160.723 98.759,162.475 98.817,162.951 99.151 C 164.760 100.418,165.220 103.552,163.797 104.915 L 162.996 105.683 148.579 105.683 C 132.062 105.683,132.635 105.757,131.483 103.472 L 130.895 102.306 130.895 71.832 C 130.895 50.391,130.980 41.114,131.181 40.536 C 131.716 39.004,135.980 38.448,137.688 39.687 M198.538 39.270 C 199.027 39.442,199.515 39.758,199.623 39.974 C 201.606 43.951,202.566 46.247,203.000 48.046 C 203.304 49.307,203.853 50.729,204.291 51.391 C 204.764 52.105,205.262 53.443,205.598 54.906 C 205.909 56.253,206.526 57.958,207.035 58.875 C 207.526 59.760,208.173 61.523,208.472 62.794 C 208.771 64.065,209.415 65.828,209.903 66.713 C 210.391 67.598,210.986 69.203,211.225 70.281 C 211.463 71.359,212.061 72.961,212.552 73.841 C 213.047 74.729,213.682 76.460,213.978 77.727 C 214.271 78.984,214.905 80.732,215.387 81.613 C 215.869 82.493,216.513 84.238,216.819 85.491 C 217.125 86.744,217.773 88.507,218.260 89.410 C 218.747 90.313,219.336 91.925,219.569 92.992 C 219.802 94.058,220.386 95.646,220.867 96.519 C 221.771 98.160,222.430 100.433,222.734 102.961 C 222.988 105.066,222.106 105.815,219.379 105.809 C 216.002 105.801,214.689 104.579,213.755 100.573 C 213.447 99.252,212.842 97.553,212.410 96.798 C 211.978 96.044,211.385 94.442,211.093 93.239 C 210.329 90.092,210.209 89.873,208.517 88.503 L 206.986 87.263 195.874 87.263 C 181.447 87.263,181.468 87.257,180.437 91.935 C 180.203 92.996,179.662 94.476,179.234 95.224 C 178.798 95.986,178.213 97.664,177.903 99.043 C 177.255 101.920,175.733 104.798,174.528 105.420 C 172.960 106.231,169.450 105.761,168.496 104.612 C 168.012 104.029,169.621 97.508,170.744 95.499 C 171.243 94.608,171.866 92.895,172.174 91.571 C 172.474 90.279,172.989 88.811,173.318 88.308 C 174.031 87.220,174.641 85.575,175.062 83.605 C 175.231 82.815,175.767 81.445,176.253 80.560 C 176.739 79.675,177.384 77.912,177.685 76.641 C 177.987 75.370,178.626 73.625,179.105 72.763 C 179.585 71.901,180.164 70.372,180.391 69.366 C 180.889 67.165,181.228 66.265,182.017 65.051 C 182.345 64.546,182.894 63.002,183.237 61.620 C 183.579 60.238,184.224 58.469,184.670 57.689 C 185.116 56.910,185.723 55.236,186.018 53.969 C 186.313 52.703,186.949 50.947,187.431 50.066 C 187.913 49.185,188.565 47.410,188.880 46.121 C 189.282 44.473,189.753 43.328,190.465 42.261 C 191.022 41.427,191.543 40.540,191.622 40.290 C 192.020 39.036,196.138 38.429,198.538 39.270 M103.592 40.400 C 105.029 40.992,106.559 41.554,106.992 41.647 C 108.830 42.044,112.899 45.817,114.202 48.331 C 114.761 49.411,115.448 50.588,115.728 50.947 C 116.698 52.190,117.084 58.153,116.514 63.096 C 116.202 65.797,114.171 70.258,112.337 72.268 C 111.799 72.858,111.223 73.593,111.058 73.902 C 110.893 74.211,110.065 74.813,109.219 75.240 C 108.373 75.668,107.607 76.136,107.517 76.281 C 107.059 77.022,104.921 77.884,102.277 78.391 C 100.702 78.694,98.589 79.175,97.583 79.461 C 96.263 79.835,94.572 80.022,91.499 80.133 L 87.244 80.287 86.600 81.052 L 85.957 81.817 85.957 93.017 L 85.957 104.216 85.329 104.947 C 84.422 106.001,79.880 106.071,78.790 105.046 L 78.119 104.416 78.119 73.488 C 78.119 39.805,78.024 41.916,79.598 40.466 C 81.017 39.158,80.805 39.180,91.182 39.253 L 100.980 39.322 103.592 40.400 M324.238 39.915 C 324.994 40.849,325.182 43.180,324.604 44.460 C 323.708 46.448,324.286 46.365,310.593 46.454 L 298.367 46.534 297.714 47.495 L 297.061 48.456 297.061 56.956 L 297.061 65.457 297.723 66.432 L 298.386 67.407 308.370 67.408 C 319.237 67.409,318.647 67.337,320.479 68.893 C 322.327 70.463,321.678 73.082,319.158 74.227 C 318.182 74.670,317.266 74.711,308.253 74.717 L 298.414 74.722 297.737 75.526 L 297.061 76.330 297.061 86.075 C 297.061 94.143,297.129 96.014,297.460 96.950 C 298.248 99.186,297.183 99.020,310.801 99.020 C 318.023 99.020,323.162 99.123,323.562 99.275 C 325.362 99.959,325.959 103.605,324.508 105.055 L 323.738 105.825 308.113 105.754 C 290.243 105.672,290.966 105.762,289.811 103.472 L 289.223 102.306 289.223 72.433 C 289.223 39.902,289.130 41.915,290.702 40.466 C 292.121 39.158,291.581 39.196,308.122 39.260 L 323.756 39.321 324.238 39.915 M86.970 46.930 C 85.978 48.077,85.957 48.350,85.957 59.793 L 85.957 71.025 86.665 71.866 L 87.373 72.708 92.478 72.542 C 97.000 72.396,98.586 72.238,100.790 71.715 C 101.117 71.637,101.823 71.183,102.358 70.705 C 102.893 70.227,103.683 69.670,104.113 69.468 C 104.543 69.266,105.248 68.567,105.681 67.916 C 106.113 67.266,106.725 66.479,107.040 66.169 C 108.326 64.907,108.886 56.443,107.844 54.043 C 107.089 52.306,103.789 48.686,102.171 47.820 C 100.179 46.754,87.752 46.026,86.970 46.930 M195.100 52.157 C 192.986 55.509,192.318 56.941,191.801 59.239 C 191.502 60.567,190.845 62.448,190.341 63.420 C 189.837 64.391,189.246 66.068,189.027 67.146 C 188.808 68.223,188.172 70.046,187.613 71.195 C 187.055 72.345,186.396 74.226,186.150 75.376 C 185.903 76.525,185.530 77.800,185.320 78.208 C 184.206 80.378,185.637 80.719,195.881 80.726 L 204.303 80.732 205.083 80.013 L 205.864 79.295 205.476 77.466 C 205.263 76.460,204.635 74.755,204.081 73.677 C 203.527 72.600,202.869 70.777,202.619 69.628 C 202.368 68.478,201.780 66.832,201.311 65.970 C 200.842 65.108,200.201 63.344,199.887 62.051 C 199.573 60.758,198.982 59.106,198.575 58.381 C 198.168 57.656,197.524 55.892,197.143 54.462 C 196.260 51.140,195.957 50.798,195.100 52.157 M133.377 150.252 C 135.573 150.555,140.722 152.961,141.823 154.199 C 142.207 154.631,142.873 155.166,143.303 155.389 C 144.481 156.000,146.775 158.079,147.409 159.112 C 147.718 159.615,148.308 160.461,148.719 160.992 C 149.130 161.523,149.754 162.803,150.106 163.837 C 150.457 164.871,151.022 166.082,151.360 166.529 C 152.431 167.942,152.546 168.356,152.831 171.806 C 152.985 173.661,153.297 177.053,153.526 179.342 C 153.906 183.151,153.906 183.785,153.525 186.788 C 153.295 188.594,152.991 191.600,152.847 193.468 C 152.546 197.400,152.280 198.519,151.402 199.563 C 151.052 199.979,150.454 201.188,150.071 202.249 C 149.689 203.311,149.082 204.532,148.721 204.962 C 148.361 205.392,147.853 206.241,147.592 206.848 C 147.108 207.978,144.473 210.680,143.216 211.335 C 142.834 211.535,141.984 212.181,141.327 212.772 C 140.671 213.364,139.500 214.200,138.726 214.631 C 137.951 215.062,136.949 215.623,136.497 215.877 C 132.397 218.187,114.533 217.694,111.556 215.189 C 111.147 214.846,110.286 214.309,109.641 213.997 C 108.997 213.685,108.281 213.143,108.052 212.793 C 107.822 212.442,107.195 211.926,106.658 211.646 C 105.194 210.882,102.959 208.581,102.389 207.250 C 102.111 206.602,101.603 205.739,101.260 205.331 C 100.917 204.924,100.328 203.663,99.951 202.531 C 99.574 201.398,98.987 200.094,98.647 199.633 C 96.346 196.515,96.300 173.220,98.587 169.244 C 98.941 168.629,99.536 167.266,99.909 166.216 C 100.282 165.166,100.930 163.873,101.348 163.342 C 101.766 162.812,102.324 161.754,102.589 160.992 C 103.105 159.505,105.441 157.129,107.903 155.587 C 108.550 155.182,109.589 154.404,110.211 153.859 C 110.834 153.314,111.775 152.730,112.302 152.562 C 112.828 152.394,113.847 151.928,114.566 151.527 C 117.446 149.919,126.506 149.305,133.377 150.252 M43.400 150.926 C 44.247 151.773,44.405 154.094,44.410 165.819 L 44.415 176.838 45.092 177.642 L 45.768 178.445 59.677 178.445 L 73.586 178.445 74.220 177.772 L 74.853 177.098 74.984 164.294 L 75.114 151.489 75.882 150.829 C 77.557 149.389,82.187 150.346,82.595 152.216 C 83.086 154.464,82.826 215.460,82.324 215.915 C 80.878 217.223,76.793 217.378,75.585 216.171 L 74.984 215.569 74.984 201.469 L 74.984 187.369 74.307 186.565 L 73.631 185.761 59.725 185.761 L 45.820 185.761 45.134 186.479 L 44.449 187.198 44.367 201.365 C 44.287 215.144,44.270 215.546,43.760 216.056 C 42.537 217.279,38.232 217.254,36.915 216.017 L 36.304 215.443 36.375 183.641 L 36.447 151.838 37.067 151.178 C 38.110 150.068,42.372 149.898,43.400 150.926 M175.895 150.503 C 177.623 150.983,177.518 149.241,177.662 179.882 C 177.799 209.297,177.756 208.277,178.911 209.602 C 179.280 210.024,180.168 210.059,190.477 210.059 L 201.644 210.059 202.451 210.978 C 203.875 212.600,203.935 215.164,202.573 216.254 L 201.829 216.849 187.459 216.845 C 170.837 216.840,171.347 216.907,170.270 214.573 L 169.693 213.325 169.693 182.887 C 169.693 149.129,169.585 151.189,171.394 150.570 C 172.537 150.179,174.617 150.148,175.895 150.503 M235.663 151.235 C 237.172 151.691,239.495 152.243,240.826 152.460 C 243.736 152.936,244.256 153.120,245.217 154.011 C 245.624 154.388,246.757 155.117,247.734 155.630 C 248.711 156.144,249.510 156.668,249.510 156.796 C 249.510 156.924,250.151 157.438,250.935 157.940 C 251.719 158.441,252.571 159.157,252.829 159.530 C 253.087 159.903,253.667 160.638,254.118 161.162 C 254.568 161.687,255.258 162.880,255.651 163.815 C 256.043 164.749,256.711 165.908,257.135 166.391 C 258.122 167.515,258.245 167.864,258.774 171.006 C 259.015 172.439,259.514 174.788,259.883 176.225 C 260.834 179.936,260.976 184.721,260.231 187.982 C 259.836 189.710,258.165 198.717,258.135 199.281 C 258.133 199.316,257.733 199.787,257.246 200.326 C 256.759 200.865,256.051 202.067,255.673 202.998 C 255.295 203.928,254.649 205.045,254.237 205.480 C 253.825 205.915,253.296 206.650,253.063 207.114 C 252.829 207.578,252.001 208.428,251.223 209.003 C 250.446 209.577,249.734 210.170,249.641 210.319 C 249.549 210.469,248.864 210.896,248.120 211.269 C 247.376 211.641,246.179 212.388,245.460 212.928 C 244.742 213.469,243.337 214.170,242.338 214.487 C 241.339 214.804,240.164 215.251,239.726 215.481 C 237.710 216.535,236.395 216.653,225.343 216.764 L 214.631 216.872 213.600 216.274 C 211.316 214.948,211.506 217.731,211.420 184.324 C 211.337 152.196,211.295 153.498,212.462 152.169 C 214.197 150.193,214.075 150.213,224.037 150.314 L 232.920 150.405 235.663 151.235 M310.085 150.846 C 311.365 152.005,311.393 155.143,310.138 156.760 L 309.632 157.413 297.223 157.491 L 284.814 157.568 284.014 158.479 L 283.214 159.391 283.214 168.114 L 283.214 176.838 283.883 177.633 L 284.551 178.428 294.569 178.502 L 304.587 178.576 305.723 179.395 C 307.903 180.967,308.239 182.504,306.783 184.235 C 305.519 185.737,305.327 185.761,294.480 185.761 L 284.566 185.761 283.890 186.565 L 283.214 187.369 283.224 197.473 C 283.235 207.355,283.248 207.603,283.812 208.752 L 284.389 209.928 296.968 210.059 C 309.079 210.185,309.569 210.209,310.124 210.711 C 311.657 212.099,311.957 214.943,310.698 216.150 L 309.965 216.852 294.303 216.846 C 276.219 216.839,276.907 216.924,275.822 214.573 L 275.245 213.325 275.245 183.497 L 275.245 153.670 276.032 152.537 C 276.491 151.877,277.308 151.155,277.992 150.806 L 279.164 150.207 294.356 150.283 C 308.749 150.355,309.575 150.385,310.085 150.846 M346.252 150.479 C 347.815 150.644,349.022 150.947,350.041 151.430 C 350.862 151.820,352.324 152.343,353.289 152.592 C 354.254 152.842,355.325 153.264,355.668 153.531 C 359.930 156.850,360.575 157.562,361.347 159.807 C 361.621 160.603,362.070 161.625,362.346 162.077 C 363.767 164.411,363.778 172.186,362.362 173.892 C 362.218 174.066,361.820 174.923,361.477 175.798 C 360.790 177.550,358.842 179.974,357.413 180.853 C 356.911 181.162,355.765 182.181,354.867 183.116 L 353.236 184.817 354.541 186.023 C 355.259 186.687,355.846 187.364,355.846 187.528 C 355.846 187.692,356.266 188.234,356.779 188.732 C 357.398 189.333,357.964 190.315,358.461 191.647 C 358.874 192.752,359.525 194.110,359.909 194.664 C 360.294 195.219,360.885 196.655,361.223 197.855 C 361.561 199.056,362.227 200.684,362.702 201.473 C 363.177 202.262,363.775 203.796,364.031 204.881 C 364.306 206.050,364.855 207.411,365.376 208.221 C 367.193 211.040,367.561 215.492,366.062 216.510 C 363.060 218.549,359.367 216.438,358.203 212.018 C 357.900 210.869,357.292 209.341,356.851 208.624 C 356.410 207.906,355.814 206.378,355.526 205.227 C 355.238 204.077,354.543 202.253,353.983 201.176 C 353.422 200.098,352.788 198.565,352.573 197.769 C 352.353 196.951,351.729 195.718,351.140 194.934 C 350.567 194.171,350.098 193.386,350.098 193.190 C 350.098 192.457,346.982 189.489,345.458 188.771 C 344.633 188.382,343.764 187.891,343.527 187.679 C 342.206 186.500,334.883 186.151,333.880 187.219 L 333.246 187.893 333.116 201.841 C 332.967 217.665,333.168 216.439,330.664 216.847 C 328.390 217.217,325.811 216.632,325.439 215.662 C 325.060 214.675,325.263 153.889,325.647 153.155 C 326.129 152.236,327.584 150.849,328.413 150.521 C 329.249 150.189,343.187 150.157,346.252 150.479 M122.404 156.938 C 121.825 157.069,118.357 158.153,116.525 158.777 C 115.879 158.998,114.879 159.639,114.304 160.203 C 113.730 160.766,112.280 162.157,111.082 163.293 C 109.078 165.194,108.862 165.500,108.372 167.133 C 108.080 168.109,107.511 169.385,107.110 169.968 C 104.401 173.906,104.247 193.716,106.895 197.599 C 107.306 198.201,107.875 199.463,108.159 200.403 C 108.611 201.894,108.914 202.345,110.530 203.930 C 115.132 208.444,114.686 208.119,116.940 208.596 C 118.077 208.836,119.948 209.352,121.097 209.742 C 124.309 210.831,128.741 210.778,131.156 209.621 C 132.090 209.173,133.328 208.680,133.908 208.524 C 134.961 208.241,135.674 207.647,139.681 203.719 C 141.004 202.422,141.637 201.581,141.864 200.816 C 142.040 200.223,142.578 199.092,143.058 198.302 C 144.113 196.566,144.482 195.007,145.407 188.374 L 146.118 183.279 145.551 179.229 C 144.469 171.499,144.104 169.962,142.898 168.060 C 142.468 167.382,142.005 166.412,141.868 165.905 C 141.694 165.257,140.979 164.378,139.458 162.942 C 138.269 161.819,136.810 160.426,136.215 159.846 C 135.174 158.831,135.023 158.775,132.094 158.299 C 130.421 158.028,128.384 157.570,127.566 157.283 C 126.174 156.793,123.763 156.633,122.404 156.938 M219.985 158.634 L 219.195 159.724 219.264 183.650 L 219.334 207.577 219.945 208.818 L 220.556 210.059 224.039 210.059 C 226.656 210.059,228.322 209.902,230.743 209.428 C 232.515 209.082,234.825 208.716,235.876 208.616 C 238.827 208.336,240.327 207.849,241.387 206.829 C 241.903 206.332,242.737 205.754,243.240 205.544 C 244.505 205.018,246.708 202.850,247.413 201.437 C 247.736 200.790,248.284 199.958,248.631 199.587 C 248.978 199.216,249.615 197.864,250.048 196.582 C 250.480 195.301,250.998 193.899,251.199 193.466 C 252.949 189.704,252.771 177.182,250.912 173.252 C 250.545 172.476,250.080 171.289,249.880 170.614 C 249.679 169.939,249.138 168.868,248.677 168.233 C 248.215 167.599,247.566 166.519,247.234 165.833 C 246.867 165.077,246.296 164.396,245.784 164.103 C 245.318 163.837,244.526 163.239,244.024 162.775 C 243.521 162.311,242.462 161.540,241.672 161.061 C 240.882 160.583,239.733 159.877,239.118 159.493 C 237.487 158.471,229.805 157.544,222.972 157.544 L 220.774 157.544 219.985 158.634 M334.239 158.132 C 333.143 159.335,333.116 159.583,333.119 168.174 C 333.122 176.620,333.307 178.593,334.199 179.668 C 334.656 180.218,342.487 180.010,344.481 179.395 C 351.132 177.343,352.217 176.524,354.640 171.731 C 355.450 170.126,355.049 166.617,353.780 164.216 C 353.479 163.647,353.233 163.025,353.233 162.834 C 353.233 162.301,350.900 159.926,349.715 159.253 C 347.111 157.773,335.342 156.921,334.239 158.132 " stroke="none" fill="#fbfbfb" fill-rule="evenodd"></path></g></svg>