<svg id="svg" version="1.1" xmlns="http://www.w3.org/2000/svg" xmlns:xlink="http://www.w3.org/1999/xlink" width="400" height="400" viewBox="0, 0, 400,400"><g id="svgg"><path id="path0" d="M272.400 156.844 C 267.285 157.522,265.145 158.061,263.714 159.032 C 262.916 159.574,261.325 160.290,260.180 160.623 C 259.035 160.956,257.771 161.590,257.372 162.031 C 256.972 162.473,255.780 163.305,254.722 163.881 C 253.665 164.456,252.800 165.073,252.800 165.251 C 252.800 165.429,251.819 166.314,250.621 167.219 C 249.423 168.124,247.870 169.755,247.171 170.845 C 246.472 171.934,245.551 173.012,245.124 173.241 C 244.697 173.469,244.024 174.411,243.628 175.334 C 243.233 176.256,242.615 177.255,242.256 177.554 C 241.897 177.852,241.261 179.199,240.843 180.548 C 240.425 181.897,239.604 184.080,239.019 185.400 C 236.821 190.359,236.775 191.855,236.519 267.445 C 236.391 305.310,236.407 336.772,236.554 337.360 L 236.823 338.429 272.911 338.299 C 312.571 338.156,312.106 338.183,311.295 336.071 C 311.154 335.702,311.231 335.572,311.496 335.736 C 312.063 336.086,313.259 335.619,312.974 335.158 C 312.852 334.961,313.303 334.778,313.976 334.750 C 314.649 334.723,315.380 334.655,315.600 334.600 C 315.820 334.545,316.390 334.478,316.867 334.450 C 317.343 334.423,317.621 334.287,317.483 334.149 C 316.570 333.237,319.488 330.891,320.529 331.700 C 320.873 331.968,322.013 330.345,321.764 329.941 C 321.566 329.622,321.652 329.586,322.038 329.827 C 322.797 330.300,323.652 330.408,323.399 329.999 C 323.287 329.817,323.421 329.577,323.698 329.466 C 324.084 329.310,324.078 329.256,323.671 329.232 C 323.021 329.193,324.086 328.000,324.771 328.000 C 325.007 328.000,325.200 327.858,325.200 327.685 C 325.200 327.512,325.580 327.342,326.045 327.307 C 327.065 327.230,327.088 327.209,327.262 326.200 C 327.338 325.760,327.806 325.116,328.303 324.770 C 328.800 324.423,329.097 324.031,328.964 323.897 C 328.830 323.763,329.099 323.753,329.561 323.874 C 330.250 324.054,330.446 323.871,330.649 322.853 C 330.786 322.171,331.036 321.699,331.206 321.804 C 331.575 322.032,332.114 320.109,331.817 319.627 C 331.702 319.442,331.922 319.045,332.304 318.745 C 332.934 318.252,332.948 318.267,332.451 318.900 C 332.092 319.358,332.057 319.600,332.351 319.600 C 333.159 319.600,333.397 319.409,333.271 318.860 C 333.202 318.563,333.318 318.426,333.528 318.555 C 333.941 318.810,334.391 317.766,334.764 315.687 C 334.894 314.964,335.090 314.410,335.200 314.454 C 335.818 314.704,337.236 313.472,337.010 312.882 C 336.871 312.520,336.890 312.357,337.052 312.519 C 337.404 312.870,338.486 310.464,338.192 309.986 C 338.079 309.804,338.173 309.540,338.400 309.400 C 338.627 309.260,338.692 308.949,338.545 308.711 C 338.394 308.467,338.461 308.390,338.696 308.536 C 338.927 308.679,339.227 308.506,339.363 308.153 C 339.563 307.632,339.723 307.604,340.205 308.004 C 340.532 308.276,340.820 308.431,340.845 308.349 C 341.243 307.038,341.352 297.262,341.473 252.120 L 341.616 198.840 339.598 199.037 C 338.488 199.146,337.360 199.095,337.090 198.924 C 336.821 198.752,336.330 198.603,336.000 198.592 C 335.670 198.581,335.040 198.375,334.600 198.135 C 334.160 197.895,332.802 197.412,331.581 197.062 C 330.317 196.699,328.941 195.973,328.381 195.374 C 327.842 194.795,326.710 193.968,325.867 193.536 C 325.024 193.104,324.048 192.252,323.698 191.642 C 323.349 191.033,322.588 190.325,322.009 190.068 C 321.061 189.649,320.425 188.924,317.304 184.705 C 316.811 184.039,316.244 182.899,316.043 182.172 C 315.843 181.446,315.325 180.471,314.892 180.007 C 313.932 178.976,312.919 176.976,312.615 175.507 C 312.474 174.829,311.929 174.177,311.177 173.788 C 310.511 173.444,309.794 172.711,309.585 172.161 C 309.376 171.610,308.699 170.984,308.082 170.769 C 307.464 170.553,306.643 169.842,306.257 169.189 C 305.871 168.535,305.340 167.998,305.077 167.996 C 304.202 167.989,300.614 166.122,299.549 165.119 C 298.790 164.404,297.540 163.939,295.055 163.445 C 293.162 163.069,290.580 162.289,289.318 161.711 C 285.713 160.061,274.434 160.057,271.299 161.704 C 270.143 162.312,268.253 163.000,267.099 163.233 C 263.729 163.914,261.287 164.797,261.048 165.420 C 260.926 165.738,259.785 166.458,258.513 167.019 C 257.241 167.581,255.570 168.629,254.800 169.349 C 254.030 170.068,252.905 170.964,252.300 171.338 C 251.695 171.712,251.200 172.256,251.200 172.547 C 251.200 172.838,250.323 174.078,249.251 175.303 C 248.083 176.638,247.199 178.082,247.043 178.910 C 246.901 179.669,246.402 180.630,245.936 181.045 C 244.721 182.126,243.621 184.737,243.596 186.600 C 243.574 188.331,242.027 192.600,241.422 192.600 C 240.663 192.600,240.322 189.811,240.738 187.000 C 240.966 185.460,241.264 183.345,241.401 182.300 C 241.555 181.122,241.849 180.400,242.175 180.400 C 242.766 180.400,244.400 176.897,244.400 175.631 C 244.400 175.078,244.838 174.628,245.746 174.248 C 246.646 173.872,247.237 173.269,247.530 172.428 C 247.821 171.593,248.369 171.030,249.156 170.756 C 249.894 170.498,250.489 169.919,250.732 169.222 C 250.975 168.527,251.702 167.818,252.652 167.351 C 253.635 166.868,254.262 166.244,254.408 165.604 C 254.587 164.814,254.958 164.555,256.204 164.353 C 257.256 164.182,258.107 163.702,258.786 162.898 C 259.632 161.897,260.365 161.582,263.200 160.999 C 265.872 160.449,266.792 160.075,267.495 159.250 L 268.389 158.200 280.377 158.200 C 291.240 158.200,292.414 158.264,292.883 158.887 C 293.608 159.851,295.712 160.628,299.125 161.195 C 301.584 161.603,302.107 161.829,302.402 162.606 C 302.596 163.115,303.169 163.649,303.677 163.793 C 305.987 164.446,306.800 164.932,306.800 165.661 C 306.800 166.081,307.115 166.534,307.500 166.667 C 308.625 167.057,312.342 171.088,312.977 172.607 C 313.345 173.486,313.832 174.000,314.300 174.000 C 315.351 174.000,316.000 174.783,316.000 176.051 C 316.000 177.209,316.906 178.400,317.786 178.400 C 318.430 178.400,318.652 178.938,319.021 181.402 C 319.313 183.350,320.329 184.800,321.400 184.800 C 321.773 184.800,322.000 185.178,322.000 185.800 C 322.000 186.741,322.475 187.373,324.253 188.800 C 324.664 189.130,325.199 189.760,325.443 190.199 C 325.687 190.639,326.571 191.191,327.407 191.425 C 328.344 191.688,329.048 192.177,329.242 192.701 C 329.679 193.884,331.779 194.413,337.100 194.683 C 342.521 194.958,343.359 194.248,338.100 193.836 C 334.124 193.524,327.766 190.835,326.524 188.940 C 326.170 188.400,325.354 187.686,324.709 187.353 C 324.040 187.007,323.273 186.116,322.923 185.277 C 322.585 184.468,321.897 183.317,321.393 182.719 C 320.890 182.121,320.161 180.769,319.773 179.716 C 319.386 178.662,318.684 177.350,318.215 176.800 C 317.746 176.250,317.100 175.266,316.781 174.614 C 316.461 173.961,315.557 172.791,314.771 172.014 C 313.985 171.236,313.001 170.015,312.585 169.300 C 312.168 168.585,311.682 168.000,311.503 168.000 C 311.325 168.000,310.381 167.202,309.405 166.226 C 308.429 165.250,306.829 163.982,305.849 163.408 C 304.869 162.834,303.858 162.111,303.602 161.802 C 303.346 161.494,302.475 161.038,301.668 160.790 C 300.861 160.542,298.940 159.733,297.400 158.992 C 292.941 156.845,280.466 155.774,272.400 156.844 M239.940 197.107 C 240.536 200.204,240.600 332.079,240.006 333.189 C 239.770 333.629,239.750 334.045,239.957 334.174 C 240.155 334.296,240.185 334.982,240.023 335.698 C 239.862 336.414,239.707 337.180,239.681 337.400 C 239.654 337.620,239.265 337.858,238.816 337.928 L 238.000 338.056 238.003 268.728 C 238.004 230.598,238.120 198.185,238.261 196.699 C 238.570 193.425,239.264 193.593,239.940 197.107 M59.163 202.949 C 58.418 204.167,58.401 205.535,58.538 254.800 C 58.688 308.856,58.646 307.190,59.889 307.816 C 61.133 308.442,62.014 309.254,61.808 309.586 C 61.708 309.749,61.870 310.216,62.168 310.624 C 62.467 311.033,62.622 311.599,62.513 311.883 C 62.404 312.167,62.544 312.400,62.824 312.400 C 63.104 312.400,63.217 312.517,63.074 312.659 C 62.724 313.009,64.411 314.441,64.852 314.168 C 65.043 314.050,65.215 314.278,65.233 314.676 C 65.364 317.564,65.593 318.004,67.054 318.175 C 67.684 318.248,68.304 318.329,68.431 318.354 C 68.558 318.379,68.586 318.911,68.495 319.535 C 68.393 320.230,68.575 320.918,68.964 321.307 C 69.314 321.657,69.600 322.136,69.600 322.371 C 69.600 322.607,69.791 322.800,70.024 322.800 C 70.257 322.800,70.319 323.008,70.162 323.262 C 69.988 323.543,70.052 323.615,70.324 323.447 C 70.570 323.295,71.106 323.506,71.516 323.916 C 71.926 324.326,72.571 324.780,72.949 324.925 C 73.328 325.070,73.584 325.450,73.519 325.768 C 73.453 326.087,73.535 326.359,73.700 326.374 C 74.761 326.467,74.865 326.358,74.349 325.700 C 73.852 325.067,73.866 325.052,74.496 325.545 C 74.878 325.845,75.119 326.207,75.031 326.350 C 74.943 326.492,75.092 326.911,75.362 327.281 C 75.777 327.847,76.333 328.046,78.413 328.367 C 78.530 328.385,78.666 328.887,78.715 329.482 C 78.834 330.922,79.199 331.222,81.143 331.483 C 82.045 331.604,82.698 331.841,82.594 332.010 C 82.490 332.178,82.674 332.419,83.002 332.546 C 83.331 332.672,83.600 333.045,83.600 333.375 C 83.600 333.712,83.835 333.885,84.136 333.769 C 84.431 333.656,84.903 333.842,85.185 334.182 C 85.488 334.546,86.339 334.800,87.262 334.800 C 88.280 334.800,88.905 335.008,89.054 335.398 C 89.181 335.726,89.428 335.906,89.605 335.797 C 89.781 335.688,89.824 335.987,89.700 336.462 C 89.545 337.053,89.620 337.235,89.937 337.039 C 90.192 336.882,90.400 336.922,90.400 337.128 C 90.400 338.221,160.581 339.226,163.329 338.172 C 164.984 337.537,164.168 214.009,162.497 212.337 C 162.334 212.174,162.254 240.393,162.321 275.047 L 162.441 338.054 161.121 337.927 L 159.800 337.800 159.703 291.600 C 159.598 242.140,159.428 223.079,159.079 221.800 C 158.959 221.360,158.847 220.543,158.831 219.985 C 158.802 219.026,157.200 218.267,157.200 219.212 C 157.200 219.412,156.952 219.480,156.649 219.363 C 156.092 219.150,155.893 219.770,155.351 223.400 C 155.060 225.355,155.175 225.235,153.494 225.326 C 152.569 225.375,152.169 225.567,152.295 225.900 C 152.400 226.175,152.276 226.400,152.019 226.400 C 151.763 226.400,151.632 226.535,151.729 226.700 C 152.094 227.318,151.199 228.800,150.462 228.800 C 149.579 228.800,148.949 229.458,148.739 230.600 C 148.653 231.066,148.215 231.454,147.690 231.529 C 147.194 231.599,146.895 231.830,147.026 232.042 C 147.165 232.267,146.832 232.349,146.224 232.239 C 145.652 232.135,145.277 232.200,145.390 232.384 C 145.983 233.343,145.083 235.200,144.025 235.200 C 143.434 235.200,142.560 235.564,142.083 236.008 C 141.606 236.453,141.077 236.836,140.908 236.859 C 140.085 236.973,139.600 237.338,139.600 237.843 C 139.600 238.149,139.195 238.416,138.700 238.435 C 135.941 238.541,135.080 238.811,134.124 239.871 C 133.564 240.492,133.245 240.747,133.415 240.438 C 133.620 240.065,133.569 239.972,133.262 240.162 C 133.008 240.319,132.800 240.707,132.800 241.024 C 132.800 241.419,132.329 241.607,131.300 241.622 C 129.099 241.654,108.283 241.659,107.723 241.627 C 107.461 241.612,107.313 241.250,107.396 240.823 C 107.506 240.248,107.380 240.110,106.907 240.291 C 106.498 240.448,106.368 240.376,106.545 240.090 C 106.904 239.509,104.524 238.802,101.400 238.562 C 98.418 238.334,97.860 238.141,98.131 237.436 C 98.559 236.320,97.237 235.392,94.987 235.230 C 94.760 235.213,94.536 234.734,94.489 234.165 C 94.394 233.021,92.987 231.634,91.900 231.613 C 91.515 231.606,91.178 231.420,91.150 231.200 C 90.980 229.841,90.329 228.742,89.812 228.940 C 89.234 229.162,88.220 228.598,88.150 228.015 C 88.123 227.787,88.055 227.510,88.000 227.400 C 87.945 227.290,87.877 227.028,87.850 226.817 C 87.774 226.239,86.293 225.227,85.500 225.213 C 85.064 225.205,84.776 224.861,84.737 224.300 C 84.703 223.805,84.640 222.887,84.596 222.260 C 84.553 221.633,84.291 220.980,84.014 220.809 C 83.616 220.562,83.624 220.451,84.055 220.280 C 84.435 220.129,84.388 220.054,83.900 220.032 C 83.515 220.014,83.200 219.841,83.200 219.647 C 83.200 219.452,82.840 219.199,82.400 219.084 C 81.817 218.932,81.585 218.512,81.546 217.537 C 81.404 214.061,81.312 213.541,80.742 212.971 C 80.406 212.635,79.754 212.332,79.293 212.297 C 78.833 212.262,78.481 212.136,78.513 212.017 C 78.544 211.898,78.334 211.373,78.045 210.852 C 77.671 210.176,77.658 209.989,78.000 210.200 C 78.368 210.428,78.374 210.300,78.026 209.648 C 77.776 209.182,77.353 208.773,77.086 208.739 C 76.819 208.706,76.420 208.636,76.200 208.585 C 75.980 208.534,75.583 208.472,75.318 208.446 C 75.053 208.421,74.718 207.772,74.574 207.004 C 74.430 206.235,74.164 205.698,73.984 205.810 C 73.803 205.922,73.556 205.853,73.435 205.657 C 73.314 205.460,72.741 205.300,72.162 205.300 C 71.116 205.300,70.273 204.530,70.650 203.919 C 70.758 203.744,70.644 203.600,70.395 203.600 C 70.146 203.600,69.673 203.330,69.343 203.000 C 69.013 202.670,68.385 202.400,67.948 202.400 C 67.511 202.400,67.259 202.227,67.390 202.016 C 67.536 201.781,66.141 201.645,63.778 201.666 L 59.928 201.699 59.163 202.949 M160.705 209.629 C 159.576 210.287,158.896 211.791,159.992 211.204 C 160.461 210.953,160.956 210.458,161.093 210.103 C 161.307 209.545,161.380 209.562,161.642 210.229 C 161.918 210.935,161.946 210.924,161.972 210.100 C 162.003 209.112,161.752 209.019,160.705 209.629 " stroke="none" fill="#5cacfc" fill-rule="evenodd"></path><path id="path1" d="M275.400 155.199 C 274.740 155.399,272.075 155.935,269.477 156.391 C 266.057 156.991,264.172 157.547,262.645 158.410 C 261.485 159.064,260.280 159.606,259.968 159.613 C 259.655 159.621,258.680 160.148,257.800 160.785 C 256.920 161.422,255.300 162.483,254.200 163.143 C 250.904 165.121,244.563 171.729,243.013 174.800 C 242.624 175.570,241.980 176.560,241.580 177.000 C 240.937 177.709,239.494 181.001,237.730 185.784 C 235.481 191.885,234.601 228.078,235.012 297.600 C 235.256 338.830,235.244 338.400,236.087 338.400 C 236.502 338.399,236.610 325.113,236.653 268.900 C 236.711 192.149,236.758 190.495,239.019 185.400 C 239.604 184.080,240.425 181.897,240.843 180.548 C 241.261 179.199,241.897 177.852,242.256 177.554 C 242.615 177.255,243.233 176.256,243.628 175.334 C 244.024 174.411,244.697 173.469,245.124 173.241 C 245.551 173.012,246.472 171.934,247.171 170.845 C 247.870 169.755,249.423 168.124,250.621 167.219 C 251.819 166.314,252.800 165.429,252.800 165.251 C 252.800 165.073,253.665 164.456,254.722 163.881 C 255.780 163.305,256.972 162.473,257.372 162.031 C 257.771 161.590,259.035 160.956,260.180 160.623 C 261.325 160.290,262.890 159.591,263.658 159.071 C 268.742 155.620,290.290 155.570,297.400 158.992 C 298.940 159.733,300.861 160.542,301.668 160.790 C 302.475 161.038,303.346 161.494,303.602 161.802 C 303.858 162.111,304.869 162.834,305.849 163.408 C 306.829 163.982,308.429 165.250,309.405 166.226 C 310.381 167.202,311.325 168.000,311.503 168.000 C 311.682 168.000,312.168 168.585,312.585 169.300 C 313.001 170.015,313.985 171.236,314.771 172.014 C 315.557 172.791,316.461 173.961,316.781 174.614 C 317.100 175.266,317.746 176.250,318.215 176.800 C 318.684 177.350,319.386 178.662,319.773 179.716 C 320.161 180.769,320.890 182.121,321.393 182.719 C 321.897 183.317,322.585 184.468,322.923 185.277 C 323.273 186.116,324.040 187.007,324.709 187.353 C 325.354 187.686,326.170 188.400,326.524 188.940 C 328.303 191.655,342.341 195.981,341.516 193.559 C 341.404 193.232,340.843 193.024,340.163 193.057 C 338.236 193.152,334.811 192.475,333.054 191.653 C 332.144 191.227,330.754 190.585,329.965 190.225 C 329.177 189.865,327.788 188.858,326.881 187.985 C 325.973 187.113,325.035 186.400,324.795 186.400 C 324.555 186.400,324.079 185.729,323.736 184.909 C 323.394 184.089,322.617 182.694,322.011 181.809 C 321.405 180.924,320.769 179.750,320.597 179.200 C 319.978 177.222,315.633 171.329,312.151 167.746 C 307.833 163.303,305.089 161.396,298.694 158.397 C 293.996 156.193,278.946 154.127,275.400 155.199 M69.343 203.000 C 69.673 203.330,70.146 203.600,70.395 203.600 C 70.644 203.600,70.758 203.744,70.650 203.919 C 70.542 204.095,70.618 204.500,70.820 204.819 C 71.111 205.278,71.189 205.221,71.194 204.546 C 71.197 204.075,70.758 203.402,70.214 203.046 C 68.977 202.236,68.556 202.213,69.343 203.000 M162.591 208.270 C 161.734 208.441,161.632 211.231,162.446 212.242 C 164.012 214.187,165.044 337.512,163.500 338.135 C 163.225 338.246,163.369 338.351,163.820 338.368 C 164.271 338.386,164.856 338.184,165.120 337.920 C 165.628 337.412,165.852 210.781,165.348 208.900 C 165.109 208.008,164.548 207.880,162.591 208.270 M155.646 220.067 C 155.621 220.434,155.496 221.064,155.370 221.467 C 155.152 222.162,155.163 222.163,155.597 221.487 C 155.848 221.096,155.973 220.466,155.873 220.087 C 155.711 219.468,155.688 219.466,155.646 220.067 M90.413 229.076 C 90.406 229.338,90.583 229.666,90.807 229.804 C 91.030 229.942,91.117 230.210,91.000 230.400 C 90.883 230.590,90.970 230.858,91.193 230.996 C 91.417 231.134,91.600 231.001,91.600 230.700 C 91.600 230.020,90.430 228.420,90.413 229.076 M141.003 236.117 C 140.104 236.627,139.365 237.366,139.310 237.811 C 139.244 238.356,139.294 238.415,139.472 238.000 C 139.760 237.329,140.880 236.409,141.196 236.584 C 141.308 236.647,141.746 236.361,142.170 235.949 C 143.164 234.982,142.954 235.012,141.003 236.117 M105.514 239.251 C 106.237 239.460,106.721 239.803,106.591 240.015 C 106.460 240.227,106.543 240.400,106.776 240.400 C 107.474 240.400,107.255 239.658,106.426 239.214 C 106.001 238.986,105.326 238.816,104.926 238.836 C 104.527 238.856,104.791 239.043,105.514 239.251 M133.029 239.429 C 132.683 239.774,132.411 240.449,132.425 240.929 L 132.451 241.800 132.812 240.900 C 133.011 240.405,133.281 240.000,133.411 240.000 C 133.541 240.000,133.520 240.225,133.365 240.500 C 133.209 240.775,133.469 240.603,133.941 240.117 C 134.414 239.631,134.800 239.136,134.800 239.017 C 134.800 238.557,133.627 238.830,133.029 239.429 M341.227 305.200 C 340.942 307.032,340.961 307.599,341.297 307.263 C 341.498 307.062,341.585 306.381,341.491 305.749 C 341.397 305.117,341.278 304.870,341.227 305.200 M60.092 308.628 C 61.214 309.812,62.499 310.014,61.436 308.840 C 61.058 308.422,60.396 307.988,59.966 307.875 C 59.249 307.688,59.259 307.750,60.092 308.628 M339.346 308.198 C 339.219 308.526,338.910 308.678,338.658 308.534 C 338.406 308.390,338.333 308.419,338.497 308.599 C 338.660 308.779,338.593 309.168,338.348 309.463 C 338.076 309.791,338.058 310.000,338.302 310.000 C 338.810 310.000,339.739 308.893,339.847 308.160 C 339.956 307.419,339.635 307.443,339.346 308.198 M337.600 312.357 C 337.600 312.627,337.392 312.719,337.138 312.562 C 336.833 312.373,336.786 312.454,336.999 312.799 C 337.203 313.128,337.049 313.521,336.585 313.861 C 336.179 314.157,336.057 314.400,336.314 314.400 C 336.896 314.400,338.201 312.468,337.854 312.121 C 337.714 311.981,337.600 312.087,337.600 312.357 M62.400 312.738 C 62.400 313.156,63.742 314.400,64.193 314.400 C 64.374 314.400,64.138 314.067,63.668 313.659 C 63.199 313.252,62.931 312.802,63.074 312.659 C 63.217 312.517,63.123 312.400,62.867 312.400 C 62.610 312.400,62.400 312.552,62.400 312.738 M332.667 319.267 C 332.263 319.707,332.040 320.174,332.171 320.304 C 332.413 320.547,333.564 319.243,333.587 318.700 C 333.605 318.289,333.509 318.347,332.667 319.267 M73.112 325.431 C 73.562 326.267,75.600 328.156,75.600 327.738 C 75.600 327.596,74.947 326.847,74.149 326.072 C 73.351 325.297,72.885 325.009,73.112 325.431 M323.718 328.579 C 323.339 329.011,323.352 329.173,323.778 329.336 C 324.091 329.456,324.407 329.218,324.523 328.772 C 324.757 327.877,324.409 327.793,323.718 328.579 M321.774 329.945 C 321.976 330.280,321.890 330.624,321.551 330.839 C 321.142 331.098,321.232 331.189,321.900 331.194 C 322.395 331.197,322.800 331.009,322.800 330.776 C 322.800 330.543,322.968 330.456,323.172 330.583 C 323.377 330.709,323.650 330.643,323.779 330.434 C 323.908 330.226,323.843 329.950,323.634 329.821 C 323.426 329.692,323.137 329.779,322.992 330.013 C 322.812 330.304,322.526 330.275,322.088 329.919 C 321.556 329.489,321.503 329.493,321.774 329.945 M82.800 332.800 C 83.130 333.013,83.243 333.191,83.051 333.194 C 82.859 333.197,82.933 333.478,83.215 333.818 C 83.497 334.158,83.947 334.352,84.215 334.249 C 84.483 334.147,84.941 334.273,85.232 334.531 C 85.639 334.891,85.635 334.833,85.217 334.282 C 84.917 333.887,84.448 333.649,84.175 333.754 C 83.902 333.859,83.588 333.597,83.477 333.172 C 83.366 332.748,83.033 332.403,82.737 332.406 C 82.329 332.411,82.344 332.506,82.800 332.800 M88.832 335.700 C 88.790 336.610,90.202 338.013,91.100 337.954 C 91.767 337.909,91.767 337.898,91.100 337.724 C 90.715 337.624,90.400 337.345,90.400 337.104 C 90.400 336.863,90.276 336.791,90.124 336.943 C 89.972 337.095,89.627 336.720,89.356 336.109 C 89.023 335.357,88.855 335.225,88.832 335.700 " stroke="none" fill="#347cfc" fill-rule="evenodd"></path><path id="path2" d="M91.302 61.991 C 89.572 62.400,88.800 63.097,88.800 64.249 C 88.800 65.049,88.594 65.205,87.500 65.230 C 84.458 65.299,82.400 66.250,82.400 67.587 C 82.400 68.221,82.065 68.378,80.500 68.478 C 78.618 68.599,78.599 68.614,78.476 70.100 C 78.353 71.584,78.086 71.789,76.406 71.692 C 75.597 71.645,75.213 72.351,75.206 73.900 C 75.200 75.166,74.076 75.618,71.873 75.238 C 71.694 75.208,71.579 75.501,71.619 75.891 C 71.847 78.113,71.662 78.400,70.000 78.400 C 68.409 78.400,68.400 78.409,68.400 79.949 C 68.400 81.450,68.350 81.506,66.776 81.757 C 65.562 81.952,65.170 82.191,65.222 82.709 C 65.261 83.089,65.271 84.525,65.246 85.900 L 65.200 88.400 63.814 88.400 C 62.239 88.400,61.402 89.451,61.706 91.045 C 61.854 91.814,61.720 92.000,61.021 92.000 C 60.544 92.000,59.804 92.255,59.376 92.568 C 58.309 93.348,58.135 196.935,59.200 197.608 C 59.530 197.817,61.522 197.991,63.626 197.994 L 67.453 198.000 68.777 196.500 C 69.943 195.178,70.368 194.976,72.350 194.800 L 74.600 194.600 74.724 193.100 C 74.844 191.649,74.899 191.600,76.381 191.600 C 78.003 191.600,78.400 191.160,78.400 189.367 C 78.400 188.656,78.619 188.400,79.226 188.400 C 81.203 188.400,81.600 187.765,81.600 184.610 L 81.600 181.648 83.100 181.524 C 84.588 181.401,84.601 181.384,84.723 179.481 C 84.826 177.867,85.002 177.504,85.830 177.189 C 86.371 176.983,86.987 176.361,87.197 175.807 C 87.408 175.253,87.765 174.800,87.990 174.800 C 88.216 174.800,88.400 174.080,88.400 173.200 L 88.400 171.600 90.000 171.600 C 91.596 171.600,91.600 171.596,91.600 170.024 C 91.600 168.492,91.642 168.445,93.100 168.324 C 94.554 168.204,94.604 168.148,94.722 166.516 L 94.844 164.832 98.122 164.716 L 101.400 164.600 101.524 163.100 L 101.648 161.600 104.807 161.600 C 107.946 161.600,107.977 161.590,109.648 160.000 L 111.330 158.400 119.833 158.400 L 128.336 158.400 128.605 159.624 C 128.963 161.255,130.015 161.600,134.626 161.600 C 138.351 161.600,138.400 161.613,138.400 162.567 C 138.400 164.423,138.781 164.800,140.653 164.800 C 142.173 164.800,142.473 164.941,142.803 165.807 C 143.013 166.361,143.639 166.987,144.193 167.197 C 144.747 167.408,145.200 167.765,145.200 167.990 C 145.200 168.216,145.920 168.400,146.800 168.400 L 148.400 168.400 148.400 170.000 L 148.400 171.600 150.000 171.600 C 151.385 171.600,151.604 171.721,151.627 172.500 C 151.734 176.060,152.394 177.539,154.022 177.864 C 155.111 178.082,155.200 178.233,155.200 179.850 L 155.200 181.600 156.800 181.600 L 158.400 181.600 158.400 186.120 C 158.400 191.030,158.616 191.600,160.480 191.600 L 161.600 191.600 161.600 198.567 C 161.600 206.846,161.554 206.664,163.574 206.471 C 166.868 206.157,166.586 200.161,166.708 272.982 C 166.810 333.396,166.774 337.430,166.132 337.899 C 165.582 338.302,172.235 338.400,200.004 338.400 C 226.881 338.400,234.453 338.293,234.080 337.920 C 232.845 336.685,233.655 198.058,234.918 194.400 C 235.260 193.410,235.837 190.710,236.201 188.400 C 236.654 185.516,237.151 183.761,237.787 182.800 C 238.296 182.030,239.012 180.470,239.377 179.334 C 239.743 178.197,240.465 176.844,240.981 176.328 C 241.498 175.811,242.164 174.823,242.460 174.132 C 243.626 171.418,250.626 164.187,253.600 162.625 C 254.590 162.105,255.828 161.221,256.350 160.660 C 256.873 160.100,257.798 159.532,258.407 159.398 C 259.016 159.265,260.362 158.618,261.398 157.960 C 262.562 157.222,264.452 156.533,266.341 156.159 C 268.024 155.826,270.300 155.168,271.400 154.698 C 274.161 153.517,283.862 153.216,287.200 154.208 C 288.410 154.567,291.380 155.305,293.800 155.847 C 296.302 156.408,298.806 157.233,299.605 157.759 C 300.378 158.269,301.458 158.822,302.005 158.989 C 303.316 159.387,305.435 160.685,306.722 161.878 C 307.291 162.405,308.351 163.119,309.078 163.464 C 309.805 163.809,310.400 164.244,310.400 164.431 C 310.400 164.618,311.840 166.246,313.600 168.049 C 315.360 169.852,316.800 171.435,316.800 171.567 C 316.800 171.698,317.610 172.793,318.600 174.000 C 319.590 175.207,320.680 177.037,321.022 178.067 C 321.364 179.096,321.881 180.135,322.170 180.375 C 322.459 180.615,323.179 181.889,323.770 183.206 C 324.361 184.523,325.035 185.600,325.267 185.600 C 325.498 185.600,326.487 186.410,327.463 187.400 C 328.439 188.390,329.427 189.200,329.658 189.200 C 330.096 189.200,332.060 190.001,334.305 191.095 C 335.023 191.445,336.958 191.842,338.605 191.976 L 341.600 192.221 341.600 142.743 C 341.600 91.788,341.605 92.000,340.390 92.000 C 338.961 92.000,338.400 91.525,338.400 90.315 C 338.400 88.985,336.301 86.000,335.366 86.000 C 334.955 86.000,334.800 85.464,334.800 84.043 C 334.800 81.967,334.465 81.600,332.567 81.600 C 331.705 81.600,331.600 81.426,331.600 80.000 L 331.600 78.400 330.000 78.400 L 328.400 78.400 328.400 76.800 L 328.400 75.200 326.623 75.200 L 324.846 75.200 324.723 73.500 C 324.623 72.125,324.447 71.792,323.800 71.759 C 321.702 71.652,321.649 71.614,321.524 70.100 C 321.404 68.644,321.350 68.596,319.700 68.477 C 318.118 68.363,318.000 68.273,318.000 67.191 C 318.000 65.675,317.068 65.200,314.097 65.200 L 311.741 65.200 311.371 63.705 C 311.038 62.365,310.835 62.182,309.400 61.930 C 307.212 61.547,92.927 61.606,91.302 61.991 M138.989 235.617 C 138.859 235.828,138.898 236.003,139.076 236.006 C 139.254 236.009,139.135 236.180,138.812 236.384 C 138.488 236.589,138.308 236.841,138.412 236.944 C 138.515 237.047,139.002 236.805,139.494 236.406 C 140.202 235.832,140.267 235.635,139.807 235.458 C 139.487 235.335,139.119 235.407,138.989 235.617 M132.065 239.417 C 131.395 240.888,131.523 241.202,132.247 239.865 C 132.586 239.240,132.788 238.654,132.696 238.563 C 132.605 238.471,132.321 238.856,132.065 239.417 M340.682 308.442 C 340.211 308.716,340.049 309.124,340.209 309.630 C 340.405 310.247,340.278 310.380,339.571 310.300 C 339.085 310.245,338.608 310.425,338.511 310.700 C 338.400 311.013,338.702 311.200,339.318 311.200 C 340.472 311.200,341.017 310.620,341.291 309.100 C 341.400 308.495,341.469 308.005,341.445 308.012 C 341.420 308.019,341.077 308.212,340.682 308.442 M59.200 309.400 C 58.511 310.230,59.288 311.102,60.707 311.092 C 61.308 311.088,61.574 311.005,61.298 310.908 C 61.021 310.811,60.895 310.569,61.018 310.370 C 61.141 310.172,60.962 310.116,60.621 310.247 C 60.062 310.462,59.807 310.023,59.953 309.100 C 60.027 308.632,59.744 308.745,59.200 309.400 M338.046 311.867 C 338.021 312.124,337.884 312.664,337.741 313.067 C 337.540 313.636,337.594 313.697,337.979 313.342 C 338.252 313.091,338.389 312.551,338.284 312.142 C 338.179 311.734,338.072 311.610,338.046 311.867 M333.906 319.932 C 334.068 320.354,333.979 320.434,333.606 320.204 C 333.229 319.971,333.171 320.029,333.404 320.406 C 333.644 320.794,333.547 320.865,333.045 320.673 C 332.637 320.516,332.458 320.570,332.603 320.805 C 333.004 321.453,333.943 321.254,334.386 320.426 C 334.922 319.424,334.910 319.333,334.238 319.333 C 333.903 319.333,333.769 319.576,333.906 319.932 M68.409 322.676 C 68.404 322.938,68.583 323.266,68.807 323.404 C 69.030 323.542,69.092 323.851,68.945 324.089 C 68.792 324.336,68.861 324.410,69.104 324.259 C 69.339 324.114,69.623 324.221,69.734 324.498 C 69.846 324.774,69.947 324.820,69.960 324.600 C 69.972 324.380,69.630 323.750,69.200 323.200 C 68.770 322.650,68.414 322.414,68.409 322.676 M327.834 326.207 C 327.669 326.865,327.097 327.457,326.286 327.810 C 324.984 328.376,325.467 328.586,327.077 328.154 C 327.636 328.004,328.049 327.487,328.215 326.731 C 328.540 325.253,328.193 324.776,327.834 326.207 M72.000 326.751 C 72.000 327.263,73.176 328.157,73.467 327.867 C 73.757 327.576,72.863 326.400,72.351 326.400 C 72.158 326.400,72.000 326.558,72.000 326.751 M323.700 330.394 C 323.205 330.798,322.800 331.234,322.800 331.364 C 322.800 331.832,323.913 331.587,324.389 331.013 C 325.183 330.057,324.674 329.600,323.700 330.394 M88.631 337.151 C 88.350 337.604,90.586 338.550,91.280 338.272 C 91.566 338.157,91.408 338.049,90.929 338.032 C 90.449 338.014,89.786 337.729,89.454 337.397 C 89.122 337.065,88.752 336.954,88.631 337.151 " stroke="none" fill="#044bfc" fill-rule="evenodd"></path><path id="path3" d="M273.658 153.999 C 272.921 154.173,271.661 154.596,270.858 154.938 C 270.056 155.281,268.024 155.832,266.341 156.163 C 264.444 156.537,262.567 157.219,261.398 157.960 C 260.362 158.618,259.016 159.265,258.407 159.398 C 257.798 159.532,256.873 160.100,256.350 160.660 C 255.828 161.221,254.590 162.105,253.600 162.625 C 250.626 164.187,243.626 171.418,242.460 174.132 C 242.164 174.823,241.498 175.811,240.981 176.328 C 240.465 176.844,239.743 178.197,239.377 179.334 C 239.012 180.470,238.296 182.030,237.787 182.800 C 237.151 183.761,236.654 185.516,236.201 188.400 C 235.837 190.710,235.260 193.410,234.918 194.400 C 233.655 198.058,232.845 336.685,234.080 337.920 C 234.711 338.551,235.620 338.537,235.411 337.900 C 234.971 336.555,234.825 254.573,235.216 228.400 C 235.672 197.939,236.134 190.114,237.730 185.784 C 239.494 181.001,240.937 177.709,241.580 177.000 C 241.980 176.560,242.624 175.570,243.013 174.800 C 244.563 171.729,250.904 165.121,254.200 163.143 C 255.300 162.483,256.920 161.422,257.800 160.785 C 258.680 160.148,259.655 159.621,259.968 159.613 C 260.280 159.606,261.485 159.064,262.645 158.410 C 264.170 157.549,266.061 156.989,269.477 156.388 C 272.075 155.931,274.955 155.368,275.878 155.137 C 279.738 154.169,294.037 156.212,298.694 158.397 C 305.089 161.396,307.833 163.303,312.151 167.746 C 315.633 171.329,319.978 177.222,320.597 179.200 C 320.769 179.750,321.405 180.924,322.011 181.809 C 322.617 182.694,323.394 184.089,323.736 184.909 C 324.079 185.729,324.555 186.400,324.795 186.400 C 325.035 186.400,325.973 187.113,326.881 187.985 C 327.788 188.858,329.177 189.865,329.965 190.225 C 330.754 190.585,332.120 191.211,333.000 191.616 C 335.129 192.597,336.188 192.829,339.143 192.966 C 342.676 193.129,342.106 192.261,338.493 191.976 C 336.928 191.853,335.053 191.461,334.324 191.106 C 332.070 190.005,330.098 189.200,329.658 189.200 C 329.427 189.200,328.439 188.390,327.463 187.400 C 326.487 186.410,325.498 185.600,325.267 185.600 C 325.035 185.600,324.361 184.523,323.770 183.206 C 323.179 181.889,322.459 180.615,322.170 180.375 C 321.881 180.135,321.364 179.096,321.022 178.067 C 320.680 177.037,319.590 175.207,318.600 174.000 C 317.610 172.793,316.800 171.698,316.800 171.567 C 316.800 171.435,315.360 169.852,313.600 168.049 C 311.840 166.246,310.400 164.618,310.400 164.431 C 310.400 164.244,309.805 163.809,309.078 163.464 C 308.351 163.119,307.291 162.405,306.722 161.878 C 305.435 160.685,303.316 159.387,302.005 158.989 C 301.458 158.822,300.378 158.269,299.605 157.759 C 298.806 157.233,296.302 156.408,293.800 155.847 C 291.380 155.305,288.416 154.577,287.213 154.231 C 284.863 153.553,276.173 153.405,273.658 153.999 M69.800 202.800 C 69.936 203.020,70.317 203.200,70.647 203.200 C 70.977 203.200,71.136 203.020,71.000 202.800 C 70.864 202.580,70.483 202.400,70.153 202.400 C 69.823 202.400,69.664 202.580,69.800 202.800 M161.632 207.125 L 161.600 208.449 163.344 208.188 C 164.938 207.948,165.109 208.006,165.338 208.863 C 165.849 210.769,165.634 337.406,165.120 337.920 C 164.483 338.557,165.254 338.541,166.132 337.899 C 166.774 337.430,166.810 333.396,166.708 272.982 C 166.586 200.152,166.869 206.157,163.569 206.472 C 162.710 206.553,161.930 206.436,161.835 206.210 C 161.740 205.985,161.649 206.396,161.632 207.125 M83.500 219.470 C 83.995 219.815,84.421 220.481,84.446 220.949 C 84.482 221.593,84.536 221.635,84.672 221.121 C 84.924 220.162,84.101 218.796,83.286 218.821 C 82.722 218.838,82.761 218.954,83.500 219.470 M139.900 236.303 C 139.264 236.698,138.811 237.326,138.825 237.793 C 138.849 238.556,138.870 238.552,139.204 237.724 C 139.398 237.243,140.061 236.575,140.678 236.240 C 141.295 235.906,141.620 235.630,141.400 235.627 C 141.180 235.624,140.505 235.928,139.900 236.303 M106.800 239.096 C 106.800 239.347,106.983 239.666,107.207 239.804 C 107.430 239.942,107.517 240.210,107.400 240.400 C 107.283 240.590,107.360 240.852,107.573 240.983 C 108.071 241.291,107.752 239.592,107.209 239.049 C 106.930 238.770,106.800 238.785,106.800 239.096 M58.604 306.800 C 58.832 308.356,59.770 309.817,61.113 310.709 C 62.507 311.634,62.172 310.605,60.575 309.054 C 59.791 308.293,58.981 307.159,58.774 306.535 C 58.423 305.472,58.412 305.488,58.604 306.800 M339.293 309.194 C 338.650 310.009,338.522 310.428,338.855 310.634 C 339.148 310.815,339.217 310.750,339.038 310.462 C 338.869 310.188,339.007 310.000,339.376 310.000 C 339.719 310.000,340.000 309.719,340.000 309.376 C 340.000 309.033,340.178 308.863,340.395 308.997 C 340.622 309.137,340.689 308.977,340.553 308.621 C 340.263 307.866,340.384 307.811,339.293 309.194 M62.248 313.382 C 62.482 313.991,63.943 315.012,64.182 314.732 C 64.244 314.660,63.779 314.182,63.149 313.671 C 62.339 313.014,62.075 312.930,62.248 313.382 M68.814 322.100 C 68.796 323.003,70.197 324.404,71.100 324.386 C 71.645 324.375,71.588 324.254,70.844 323.842 C 70.318 323.550,69.650 322.882,69.358 322.356 C 68.946 321.612,68.825 321.555,68.814 322.100 M72.412 325.300 C 72.399 326.078,73.931 327.803,74.304 327.429 C 74.435 327.299,74.262 326.969,73.921 326.696 C 73.579 326.423,73.103 325.840,72.862 325.400 C 72.481 324.704,72.423 324.691,72.412 325.300 M82.260 333.411 C 82.470 333.959,83.618 334.800,84.156 334.800 C 84.270 334.800,83.914 334.350,83.364 333.800 C 82.212 332.649,81.929 332.549,82.260 333.411 " stroke="none" fill="#2b78fc" fill-rule="evenodd"></path><path id="path4" d="M269.600 158.276 C 268.811 158.379,267.851 158.860,267.400 159.379 C 266.816 160.051,265.682 160.489,263.200 160.999 C 260.365 161.582,259.632 161.897,258.786 162.898 C 258.107 163.702,257.256 164.182,256.204 164.353 C 254.958 164.555,254.587 164.814,254.408 165.604 C 254.262 166.244,253.635 166.868,252.652 167.351 C 251.702 167.818,250.975 168.527,250.732 169.222 C 250.493 169.909,249.895 170.498,249.187 170.744 C 248.445 171.003,247.828 171.636,247.459 172.519 C 247.075 173.440,246.477 174.034,245.643 174.325 C 244.780 174.626,244.400 175.017,244.400 175.605 C 244.400 176.892,242.772 180.400,242.175 180.400 C 241.849 180.400,241.555 181.122,241.401 182.300 C 241.264 183.345,240.966 185.460,240.738 187.000 C 240.322 189.813,240.624 192.320,241.400 192.493 C 242.004 192.628,243.573 188.421,243.596 186.600 C 243.621 184.737,244.721 182.126,245.936 181.045 C 246.402 180.630,246.901 179.669,247.043 178.910 C 247.199 178.082,248.083 176.638,249.251 175.303 C 250.323 174.078,251.200 172.838,251.200 172.547 C 251.200 172.256,251.695 171.712,252.300 171.338 C 252.905 170.964,254.030 170.068,254.800 169.349 C 255.570 168.629,257.241 167.581,258.513 167.019 C 259.785 166.458,260.926 165.738,261.048 165.420 C 261.287 164.797,263.729 163.914,267.099 163.233 C 268.253 163.000,270.143 162.312,271.299 161.704 C 274.434 160.057,285.713 160.061,289.318 161.711 C 290.580 162.289,293.162 163.069,295.055 163.445 C 297.540 163.939,298.790 164.404,299.549 165.119 C 300.614 166.122,304.202 167.989,305.077 167.996 C 305.340 167.998,305.871 168.535,306.257 169.189 C 306.643 169.842,307.464 170.553,308.082 170.769 C 308.699 170.984,309.376 171.610,309.585 172.161 C 309.794 172.711,310.511 173.444,311.177 173.788 C 311.929 174.177,312.474 174.829,312.615 175.507 C 312.919 176.976,313.932 178.976,314.892 180.007 C 315.325 180.471,315.843 181.446,316.043 182.172 C 316.244 182.899,316.811 184.039,317.304 184.705 C 320.425 188.924,321.061 189.649,322.009 190.068 C 322.588 190.325,323.349 191.033,323.698 191.642 C 324.048 192.252,325.024 193.104,325.867 193.536 C 326.710 193.968,327.842 194.795,328.381 195.374 C 328.941 195.973,330.317 196.699,331.581 197.062 C 332.802 197.412,334.160 197.895,334.600 198.135 C 335.040 198.375,335.670 198.594,336.000 198.620 C 336.330 198.647,336.870 198.789,337.200 198.936 C 337.703 199.159,338.558 199.138,341.300 198.833 C 341.465 198.815,341.600 197.925,341.600 196.856 L 341.600 194.912 337.100 194.683 C 331.779 194.413,329.679 193.884,329.242 192.701 C 329.048 192.177,328.344 191.688,327.407 191.425 C 326.571 191.191,325.687 190.639,325.443 190.199 C 325.199 189.760,324.664 189.130,324.253 188.800 C 322.475 187.373,322.000 186.741,322.000 185.800 C 322.000 185.178,321.773 184.800,321.400 184.800 C 320.329 184.800,319.313 183.350,319.021 181.402 C 318.652 178.938,318.430 178.400,317.786 178.400 C 316.906 178.400,316.000 177.209,316.000 176.051 C 316.000 174.783,315.351 174.000,314.300 174.000 C 313.832 174.000,313.345 173.486,312.977 172.607 C 312.342 171.088,308.625 167.057,307.500 166.667 C 307.115 166.534,306.800 166.081,306.800 165.661 C 306.800 164.932,305.987 164.446,303.677 163.793 C 303.169 163.649,302.596 163.115,302.402 162.606 C 302.107 161.829,301.584 161.603,299.125 161.195 C 295.711 160.628,293.608 159.851,292.883 158.887 C 292.373 158.208,273.871 157.723,269.600 158.276 M238.261 196.699 C 238.120 198.185,238.004 230.598,238.003 268.728 L 238.000 338.056 238.816 337.928 C 239.265 337.858,239.654 337.620,239.681 337.400 C 239.707 337.180,239.862 336.414,240.023 335.698 C 240.185 334.982,240.155 334.296,239.957 334.174 C 239.750 334.045,239.770 333.629,240.006 333.189 C 240.600 332.079,240.536 200.204,239.940 197.107 C 239.264 193.593,238.570 193.425,238.261 196.699 M161.200 208.763 C 161.200 208.962,160.872 209.039,160.472 208.935 C 159.549 208.693,158.627 209.772,158.977 210.684 C 159.201 211.269,159.299 211.287,159.600 210.799 C 159.821 210.442,159.797 210.122,159.536 209.961 C 159.245 209.780,159.251 209.616,159.557 209.426 C 159.801 209.276,160.000 209.338,160.000 209.564 C 160.000 209.790,160.270 209.871,160.600 209.745 C 160.930 209.618,161.200 209.703,161.200 209.935 C 161.200 210.568,159.585 211.569,158.954 211.327 C 158.649 211.210,158.400 211.314,158.400 211.557 C 158.400 211.801,158.625 212.003,158.900 212.006 C 159.235 212.010,159.259 212.109,158.972 212.306 C 158.501 212.629,158.548 219.895,159.032 221.600 C 159.438 223.032,159.592 239.107,159.703 291.600 L 159.800 337.800 161.100 337.925 L 162.400 338.051 162.365 279.125 C 162.346 246.716,162.168 217.860,161.969 215.000 C 161.770 212.140,161.594 209.485,161.579 209.100 C 161.550 208.396,161.200 208.084,161.200 208.763 M139.230 235.764 C 138.909 236.150,138.894 236.411,139.181 236.588 C 139.589 236.840,139.760 236.560,139.631 235.851 C 139.596 235.659,139.839 235.606,140.171 235.733 C 140.503 235.861,140.881 235.793,141.011 235.583 C 141.388 234.973,139.748 235.140,139.230 235.764 M65.746 318.695 C 66.843 320.054,67.626 320.800,67.955 320.800 C 68.342 320.800,68.805 318.426,68.431 318.358 C 66.609 318.029,65.337 318.188,65.746 318.695 M313.150 336.413 C 312.793 336.791,312.253 337.188,311.950 337.295 C 311.648 337.403,311.545 337.645,311.722 337.834 C 311.900 338.023,312.168 338.003,312.322 337.788 C 312.475 337.575,312.825 337.400,313.100 337.400 C 313.375 337.400,313.585 337.240,313.566 337.045 C 313.547 336.849,313.746 336.557,314.009 336.395 C 314.271 336.233,314.331 336.016,314.143 335.913 C 313.954 335.811,313.507 336.036,313.150 336.413 " stroke="none" fill="#65b9fc" fill-rule="evenodd"></path></g></svg>